<svg id="Layer_1" data-name="Layer 1" xmlns="http://www.w3.org/2000/svg" viewBox="0 0 50 50"><defs><style>.cls-1{fill:#fff;}</style></defs><path class="cls-1" d="M25,24.18a4.95,4.95,0,1,0-4.95-4.95A5,5,0,0,0,25,24.18Zm0-8.25a3.3,3.3,0,1,1-3.3,3.3A3.3,3.3,0,0,1,25,15.93Z"/><path class="cls-1" d="M25,20.05h.82a.83.83,0,1,0,0-1.65v-.82a.82.82,0,1,0-1.64,0v1.65A.82.82,0,0,0,25,20.05Z"/><path class="cls-1" d="M31.6,30v-3.3a.82.82,0,0,0-.83-.82H19.23a.82.82,0,0,0-.83.82V30a.83.83,0,0,0,.83.83H30.77A.83.83,0,0,0,31.6,30ZM30,29.13h-9.9V27.48H30Z"/><path class="cls-1" d="M6,25.83h6.6a.83.83,0,0,0,.82-.83.82.82,0,0,0-.82-.82V18.4a.82.82,0,0,0-.83-.82h-5A.81.81,0,0,0,6,18.4v5.78A.82.82,0,0,0,5.2,25,.83.83,0,0,0,6,25.83Zm1.65-6.6H11v4.95H7.68Z"/><path class="cls-1" d="M12.63,34.08V28.3a.82.82,0,0,0-.83-.82h-5A.81.81,0,0,0,6,28.3v5.78a.82.82,0,0,0-.83.82.83.83,0,0,0,.83.83h6.6a.83.83,0,0,0,.82-.83A.82.82,0,0,0,12.63,34.08Zm-5-4.95H11v4.95H7.68Z"/><path class="cls-1" d="M12.63,44V38.2a.82.82,0,0,0-.83-.82h-5A.81.81,0,0,0,6,38.2V44a.82.82,0,0,0-.83.82.83.83,0,0,0,.83.83h6.6a.83.83,0,0,0,.82-.83A.82.82,0,0,0,12.63,44ZM7.68,39H11V44H7.68Z"/><path class="cls-1" d="M37.37,25.83H44A.83.83,0,0,0,44.8,25a.82.82,0,0,0-.83-.82V18.4a.81.81,0,0,0-.82-.82H38.2a.82.82,0,0,0-.83.82v5.78a.82.82,0,0,0-.82.82A.83.83,0,0,0,37.37,25.83ZM39,19.23h3.3v4.95H39Z"/><path class="cls-1" d="M37.37,35.73H44a.83.83,0,0,0,.83-.83.82.82,0,0,0-.83-.82V28.3a.81.81,0,0,0-.82-.82H38.2a.82.82,0,0,0-.83.82v5.78a.82.82,0,0,0-.82.82A.83.83,0,0,0,37.37,35.73ZM39,29.13h3.3v4.95H39Z"/><path class="cls-1" d="M37.37,45.63H44a.83.83,0,0,0,.83-.83A.82.82,0,0,0,44,44V38.2a.81.81,0,0,0-.82-.82H38.2a.82.82,0,0,0-.83.82V44a.82.82,0,0,0-.82.82A.83.83,0,0,0,37.37,45.63ZM39,39h3.3V44H39Z"/><path class="cls-1" d="M48.92,15.1a.83.83,0,1,0,0-1.65H34.34L25.82,7.26V5.35l4,.66a.81.81,0,0,0,1-.67.66.66,0,0,0,0-.14V1.9a.82.82,0,0,0-.68-.81L25.14.26h0a.81.81,0,0,0-.95.67.38.38,0,0,0,0,.15V7.26l-8.52,6.19H1.08a.83.83,0,1,0,0,1.65H1.9v33H1.08a.83.83,0,1,0,0,1.65H48.92a.83.83,0,1,0,0-1.65H48.1v-33Zm-24.74,33h-3.3V39A4.14,4.14,0,0,1,24.18,35ZM25.82,35A4.14,4.14,0,0,1,29.12,39V48.1h-3.3ZM25,33.25A5.77,5.77,0,0,0,19.23,39V48.1H16.75V14.7L25,8.7l8.25,6V48.1H30.77V39A5.77,5.77,0,0,0,25,33.25Zm4.12-29-3.3-.55V2.05l3.3.55ZM3.55,15.1H15.1v33H3.55Zm42.9,33H34.9v-33H46.45Z"/></svg>