<svg id="Layer_1" data-name="Layer 1" xmlns="http://www.w3.org/2000/svg" viewBox="0 0 50 50"><defs><style>.cls-1{fill:#02d052;}</style></defs><path class="cls-1" d="M25,23.92a7.53,7.53,0,1,0-7.53-7.52A7.53,7.53,0,0,0,25,23.92ZM25,11a5.38,5.38,0,1,1-5.38,5.38A5.38,5.38,0,0,1,25,11ZM40.07,28.23a5.38,5.38,0,1,0-5.39-5.38A5.39,5.39,0,0,0,40.07,28.23Zm0-8.61a3.23,3.23,0,1,1-3.23,3.23A3.23,3.23,0,0,1,40.07,19.62Zm-30,8.61a5.38,5.38,0,1,0-5.38-5.38A5.39,5.39,0,0,0,10.09,28.23Zm0-8.61a3.23,3.23,0,1,1-3.23,3.23A3.23,3.23,0,0,1,10.09,19.62Zm30,10.76a9.64,9.64,0,0,0-4.16.95,14,14,0,0,0-21.82,0A9.66,9.66,0,0,0,.25,40.05a1.08,1.08,0,1,0,2.15,0,7.55,7.55,0,0,1,10.47-6.93A13.84,13.84,0,0,0,11,40.05a1.08,1.08,0,1,0,2.15,0,11.84,11.84,0,0,1,23.68,0,1.08,1.08,0,1,0,2.15,0,13.84,13.84,0,0,0-1.86-6.93A7.55,7.55,0,0,1,47.6,40.05a1.08,1.08,0,1,0,2.15,0A9.69,9.69,0,0,0,40.07,30.38Z"/></svg>