<svg id="Layer_1" data-name="Layer 1" xmlns="http://www.w3.org/2000/svg" viewBox="0 0 50 50"><defs><style>.cls-1{fill:#003a5d;}</style></defs><g id="Page-1"><g id="_031---University" data-name="031---University"><path id="Shape" class="cls-1" d="M48.92,44.2V25a.81.81,0,0,0-.09-.37h0l-2-4a2.47,2.47,0,0,0-2.21-1.38H39V18.4a.78.78,0,0,0-.24-.58l-4.46-4.47a2.51,2.51,0,0,0-1.07-.62V7.17l1.65-.45v2h0A2.52,2.52,0,0,0,36,10.84a.83.83,0,0,0,.82.05.81.81,0,0,0,.46-.69.83.83,0,0,0-.37-.74.89.89,0,0,1-.39-.73h0V6.21a1.65,1.65,0,0,0-.4-3L25.42.31a1.5,1.5,0,0,0-.84,0L13.85,3.19a1.66,1.66,0,0,0,0,3.2l2.9.78v5.45H16.7a2.49,2.49,0,0,0-1.9.9l-3.63,4.35a.86.86,0,0,0-.19.53v.82H5.39a2.48,2.48,0,0,0-2.21,1.37l-2,4h0a.78.78,0,0,0-.09.37V44.2a1.66,1.66,0,0,0-.83,1.42v1.65A1.65,1.65,0,0,0,1.9,48.92h11a1.66,1.66,0,0,0,1.42.83H35.72a1.66,1.66,0,0,0,1.43-.83h11a1.65,1.65,0,0,0,1.65-1.65V45.62A1.66,1.66,0,0,0,48.92,44.2ZM36.55,44h-.83V25.82H47.27V44Zm-9.08,0H22.52V34.9h4.95Zm.83-10.72H21.7a.83.83,0,0,0-.83.82V44h-5V25.82H34.07V44H29.12v-9.9A.82.82,0,0,0,28.3,33.25Zm9.07-14v1.65H12.62V19.22Zm-1.65,3.3v1.65H14.27V22.52Zm8.89-1.65a.82.82,0,0,1,.73.46l1.43,2.84h-9.4V22.52A1.64,1.64,0,0,0,39,20.87ZM25,1.9,35.74,4.79h0L25,7.67,14.27,4.78ZM18.4,7.61l6.18,1.66a1.71,1.71,0,0,0,.84,0L31.6,7.61v5H18.4Zm-2.34,7a.83.83,0,0,1,.64-.3H32.57a.79.79,0,0,1,.58.25l3.06,3.05H13.56ZM4.66,21.33a.82.82,0,0,1,.73-.46H11a1.64,1.64,0,0,0,1.65,1.65v1.65H3.23ZM1.9,45.62H12.63v1.65H1.9ZM13.45,44H2.72V25.82H14.27V44Zm.82,4.13V45.62H35.72V48.1Zm33.83-.83H37.37V45.62H48.1Z"/><path id="Shape-2" data-name="Shape" class="cls-1" d="M22.52,27.47a.83.83,0,0,0-.82.83V30a.83.83,0,0,0,1.65,0V28.3A.83.83,0,0,0,22.52,27.47Z"/><path id="Shape-3" data-name="Shape" class="cls-1" d="M11,28.3a.82.82,0,0,0-.82.82v1.65a.83.83,0,1,0,1.65,0V29.12A.83.83,0,0,0,11,28.3Z"/><path id="Shape-4" data-name="Shape" class="cls-1" d="M6,28.3a.82.82,0,0,0-.82.82v1.65a.83.83,0,1,0,1.65,0V29.12A.83.83,0,0,0,6,28.3Z"/><path id="Shape-5" data-name="Shape" class="cls-1" d="M11,33.25a.82.82,0,0,0-.82.82v1.65a.83.83,0,1,0,1.65,0V34.07A.83.83,0,0,0,11,33.25Z"/><path id="Shape-6" data-name="Shape" class="cls-1" d="M6,33.25a.82.82,0,0,0-.82.82v1.65a.83.83,0,1,0,1.65,0V34.07A.83.83,0,0,0,6,33.25Z"/><path id="Shape-7" data-name="Shape" class="cls-1" d="M11,38.2a.82.82,0,0,0-.82.82v1.65a.83.83,0,1,0,1.65,0V39A.83.83,0,0,0,11,38.2Z"/><path id="Shape-8" data-name="Shape" class="cls-1" d="M6,38.2A.82.82,0,0,0,5.2,39v1.65a.83.83,0,1,0,1.65,0V39A.83.83,0,0,0,6,38.2Z"/><path id="Shape-9" data-name="Shape" class="cls-1" d="M44,28.3a.82.82,0,0,0-.82.82v1.65a.83.83,0,1,0,1.65,0V29.12A.83.83,0,0,0,44,28.3Z"/><path id="Shape-10" data-name="Shape" class="cls-1" d="M39,28.3a.82.82,0,0,0-.82.82v1.65a.83.83,0,1,0,1.65,0V29.12A.83.83,0,0,0,39,28.3Z"/><path id="Shape-11" data-name="Shape" class="cls-1" d="M44,33.25a.82.82,0,0,0-.82.82v1.65a.83.83,0,1,0,1.65,0V34.07A.83.83,0,0,0,44,33.25Z"/><path id="Shape-12" data-name="Shape" class="cls-1" d="M39,33.25a.82.82,0,0,0-.82.82v1.65a.83.83,0,1,0,1.65,0V34.07A.83.83,0,0,0,39,33.25Z"/><path id="Shape-13" data-name="Shape" class="cls-1" d="M44,38.2a.82.82,0,0,0-.82.82v1.65a.83.83,0,1,0,1.65,0V39A.83.83,0,0,0,44,38.2Z"/><path id="Shape-14" data-name="Shape" class="cls-1" d="M39,38.2a.82.82,0,0,0-.82.82v1.65a.83.83,0,1,0,1.65,0V39A.83.83,0,0,0,39,38.2Z"/><path id="Shape-15" data-name="Shape" class="cls-1" d="M27.47,27.47a.83.83,0,0,0-.82.83V30a.83.83,0,0,0,1.65,0V28.3A.83.83,0,0,0,27.47,27.47Z"/></g></g></svg>