<svg id="Layer_1" data-name="Layer 1" xmlns="http://www.w3.org/2000/svg" viewBox="0 0 50 50"><defs><style>.cls-1{fill:#003a5d;}</style></defs><g id="Page-1"><g id="_019---Student-With-Degree" data-name="019---Student-With-Degree"><path id="Shape" class="cls-1" d="M5.69,37.21a.83.83,0,1,0-1-1.32,2.9,2.9,0,0,0,0,4.62.83.83,0,0,0,1-1.31,1.22,1.22,0,0,1-.51-1,1.26,1.26,0,0,1,.49-1Z"/><path id="Shape-2" data-name="Shape" class="cls-1" d="M44.8,32.42H43.17v-1a3.32,3.32,0,0,0-3.07-3.27l-8.5-.61V23.24l.06-.06a5.63,5.63,0,0,0,1.88-4.62,4.82,4.82,0,0,0,2.08-2.91c.22-1.47.24-3.31-.9-3.72a1.65,1.65,0,0,0-.66-.13c0-.26,0-.53,0-.81V7.17l1.65-.45v2h0a2.55,2.55,0,0,0,1.13,2.11.83.83,0,1,0,.92-1.38.87.87,0,0,1-.4-.73h0V6.21a1.64,1.64,0,0,0-.39-3L26.25.31a1.54,1.54,0,0,0-.85,0L14.67,3.19a1.65,1.65,0,0,0-1.22,1.6,1.67,1.67,0,0,0,1.22,1.6l2.9.78V11h0c0,.3,0,.57,0,.82a1.51,1.51,0,0,0-.63.12c-1.17.42-1.15,2.26-.92,3.76a4.76,4.76,0,0,0,2.06,2.88A5.68,5.68,0,0,0,20,23.18l.07.06v4.29l-8.49.6a3.32,3.32,0,0,0-3.06,3.3v1H5.2C2.47,32.42.25,35,.25,38.2S2.47,44,5.2,44H20.87V48.1a1.65,1.65,0,0,0,1.65,1.65h3.3a1.65,1.65,0,0,0,1.65-1.65V44H44.8c2.73,0,5-2.59,5-5.77s-2.22-5.78-5-5.78Zm-3.29-1v1H27.82l3.27-3.27,8.89.63a1.66,1.66,0,0,1,1.53,1.64ZM30,38.2c0,2.27-1.48,4.12-3.3,4.12H25.16a6.45,6.45,0,0,0,0-8.25h1.49C28.47,34.07,30,35.93,30,38.2ZM24.78,27.47h2.09c1.67,0,2.41-1,3.08-2.06V28l-4.12,4.12L21.7,28V25.41C22.37,26.45,23.11,27.47,24.78,27.47ZM25,38.2c0,2.27-1.48,4.12-3.3,4.12h-13a6.45,6.45,0,0,0,0-8.25h13C23.52,34.07,25,35.93,25,38.2Zm.82-36.3L36.56,4.79h0L25.83,7.67,15.1,4.78ZM25.4,9.27a1.51,1.51,0,0,0,.42.05,1.54,1.54,0,0,0,.43-.05l6.17-1.66v2.94c-.63.39-2.52,1.25-6.59,1.25s-6-.87-6.61-1.25V7.61Zm-5.64,9.05a.86.86,0,0,0-.39-.93l0,0a3.24,3.24,0,0,1-1.67-2,6.14,6.14,0,0,1,0-2,1.12,1.12,0,0,1,.43.16.82.82,0,0,0,1.22-.8q0-.18,0-.39a17.06,17.06,0,0,0,6.56,1,17,17,0,0,0,6.55-1l0,.4a.81.81,0,0,0,.38.75.8.8,0,0,0,.84,0,1.11,1.11,0,0,1,.43-.15,5.89,5.89,0,0,1,0,1.92,3.21,3.21,0,0,1-1.67,2l-.06,0h0a.82.82,0,0,0-.35,1A4.08,4.08,0,0,1,30.51,22a12.79,12.79,0,0,0-1.84,2.36c-.7,1.1-1,1.47-1.8,1.47H24.78c-.82,0-1.1-.37-1.8-1.47A12.43,12.43,0,0,0,21.13,22a4.15,4.15,0,0,1-1.37-3.67ZM10.15,31.43a1.66,1.66,0,0,1,1.53-1.65l8.88-.63,3.28,3.27H10.15ZM1.9,38.2c0-2.27,1.48-4.13,3.3-4.13s3.3,1.86,3.3,4.13S7,42.32,5.2,42.32,1.9,40.47,1.9,38.2Zm20.62,9.9V44h3.3V48.1ZM44.8,42.32H30.11a6.45,6.45,0,0,0,0-8.25H44.8c1.82,0,3.3,1.86,3.3,4.13S46.62,42.32,44.8,42.32Z"/></g></g></svg>