<svg id="Layer_1" data-name="Layer 1" xmlns="http://www.w3.org/2000/svg" viewBox="0 0 50 50"><defs><style>.cls-1{fill:#fff;}</style></defs><path class="cls-1" d="M43.36,29H41V26.6a4,4,0,0,0-4-4H33V20.21a.79.79,0,0,0-.79-.8H25.8V17.7a3.19,3.19,0,1,0-1.6,0v1.71H17.81a.79.79,0,0,0-.79.8V22.6H13a4,4,0,0,0-4,4V29H6.64a2.41,2.41,0,0,0-2.4,2.4V41a2.4,2.4,0,0,0,2.4,2.39H9v2.4a4,4,0,0,0,4,4H37a4,4,0,0,0,4-4v-2.4h2.39A2.4,2.4,0,0,0,45.76,41V31.39A2.41,2.41,0,0,0,43.36,29Zm-20-14.37a1.6,1.6,0,1,1,1.6,1.6A1.6,1.6,0,0,1,23.4,14.62ZM6.64,41.77a.8.8,0,0,1-.8-.8V31.39a.8.8,0,0,1,.8-.8H9V41.77ZM18.61,21H31.39V22.6H18.61ZM39.37,45.76A2.39,2.39,0,0,1,37,48.15H13a2.39,2.39,0,0,1-2.39-2.39V26.6A2.4,2.4,0,0,1,13,24.2H37a2.4,2.4,0,0,1,2.39,2.4ZM44.16,41a.8.8,0,0,1-.8.8H41V30.59h2.39a.8.8,0,0,1,.8.8Z"/><path class="cls-1" d="M32.19,37H17.81a.79.79,0,0,0-.79.79v.8a8,8,0,1,0,16,0v-.8A.79.79,0,0,0,32.19,37ZM25,45a6.4,6.4,0,0,1-6.39-6.39H31.39A6.4,6.4,0,0,1,25,45Z"/><path class="cls-1" d="M20.21,32.19A3.2,3.2,0,1,0,17,35.38,3.19,3.19,0,0,0,20.21,32.19Zm-4.79,0A1.6,1.6,0,1,1,17,33.78,1.6,1.6,0,0,1,15.42,32.19Z"/><path class="cls-1" d="M33,29a3.2,3.2,0,1,0,3.2,3.2A3.19,3.19,0,0,0,33,29Zm0,4.79a1.6,1.6,0,1,1,1.6-1.59A1.59,1.59,0,0,1,33,33.78Z"/><path class="cls-1" d="M12.46,17.58a.8.8,0,0,0,.56.23.81.81,0,0,0,.31-.06.78.78,0,0,0,.49-.73v-2.4h4.79A2.4,2.4,0,0,0,21,12.23V2.65a2.4,2.4,0,0,0-2.4-2.4h-16a2.39,2.39,0,0,0-2.4,2.4v9.58a2.39,2.39,0,0,0,2.4,2.39H9.5ZM1.85,12.23V2.65a.8.8,0,0,1,.8-.8h16a.8.8,0,0,1,.8.8v9.58a.79.79,0,0,1-.8.79H13a.79.79,0,0,0-.79.8v1.27L10.4,13.26A.82.82,0,0,0,9.83,13H2.65A.79.79,0,0,1,1.85,12.23Z"/><path class="cls-1" d="M47.35,3.44h-16A2.41,2.41,0,0,0,29,5.84v9.58a2.4,2.4,0,0,0,2.4,2.39h4.79v2.4a.81.81,0,0,0,.49.74A.81.81,0,0,0,37,21a.77.77,0,0,0,.56-.24l3-3h6.85a2.39,2.39,0,0,0,2.4-2.39V5.84A2.4,2.4,0,0,0,47.35,3.44Zm.8,12a.8.8,0,0,1-.8.8H40.17a.81.81,0,0,0-.57.23l-1.83,1.83V17a.79.79,0,0,0-.79-.8H31.39a.8.8,0,0,1-.8-.8V5.84a.8.8,0,0,1,.8-.8h16a.8.8,0,0,1,.8.8Z"/><path class="cls-1" d="M3.44,3.44H17.81V5H3.44Z"/><path class="cls-1" d="M3.44,9.83H17.81v1.6H3.44Z"/><path class="cls-1" d="M5,6.64H16.22V8.23H5Z"/><path class="cls-1" d="M32.19,6.64H46.56V8.23H32.19Z"/><path class="cls-1" d="M32.19,13H46.56v1.6H32.19Z"/><path class="cls-1" d="M33.78,9.83H45v1.6H33.78Z"/></svg>