<svg id="Layer_1" data-name="Layer 1" xmlns="http://www.w3.org/2000/svg" viewBox="0 0 50 50"><defs><style>.cls-1{fill:#fff;}</style></defs><g id="Calendar"><path class="cls-1" d="M45.62,5.2H41.5V3.55a3.3,3.3,0,1,0-6.6,0V5.2H28.3V3.55a3.3,3.3,0,1,0-6.6,0V5.2H15.1V3.55a3.3,3.3,0,1,0-6.6,0V5.2H4.38A4.13,4.13,0,0,0,.25,9.32v33a4.13,4.13,0,0,0,4.13,4.12h23.1a.83.83,0,0,0,0-1.65H4.38A2.48,2.48,0,0,1,1.9,42.33V16.75H48.1v14a.83.83,0,1,0,1.65,0V9.32A4.13,4.13,0,0,0,45.62,5.2ZM36.55,3.55a1.65,1.65,0,1,1,3.3,0v5a1.65,1.65,0,1,1-3.3,0Zm-13.2,0a1.65,1.65,0,1,1,3.3,0v5a1.65,1.65,0,0,1-3.3,0Zm-13.2,0a1.65,1.65,0,1,1,3.3,0v5a1.65,1.65,0,1,1-3.3,0Zm38,11.55H1.9V9.32A2.48,2.48,0,0,1,4.38,6.85H8.5V8.5a3.3,3.3,0,1,0,6.6,0V6.85h6.6V8.5a3.3,3.3,0,0,0,6.6,0V6.85h6.6V8.5a3.3,3.3,0,1,0,6.6,0V6.85h4.12A2.48,2.48,0,0,1,48.1,9.32Z"/><path class="cls-1" d="M23.35,22.52a1.64,1.64,0,0,0-1.65-1.64H18.4a1.64,1.64,0,0,0-1.65,1.64V25a1.65,1.65,0,0,0,1.65,1.65h3.3A1.65,1.65,0,0,0,23.35,25ZM18.4,25V22.52h3.3V25Z"/><path class="cls-1" d="M13.45,22.52a1.64,1.64,0,0,0-1.65-1.64H8.5a1.64,1.64,0,0,0-1.65,1.64V25A1.65,1.65,0,0,0,8.5,26.65h3.3A1.65,1.65,0,0,0,13.45,25ZM8.5,25V22.52h3.3V25Z"/><path class="cls-1" d="M41.5,26.65A1.65,1.65,0,0,0,43.15,25V22.52a1.64,1.64,0,0,0-1.65-1.64H38.2a1.64,1.64,0,0,0-1.65,1.64V25a1.65,1.65,0,0,0,1.65,1.65Zm-3.3-4.13h3.3V25H38.2Z"/><path class="cls-1" d="M23.35,30A1.65,1.65,0,0,0,21.7,28.3H18.4A1.65,1.65,0,0,0,16.75,30v2.47a1.65,1.65,0,0,0,1.65,1.66h3.3a1.65,1.65,0,0,0,1.65-1.66Zm-5,2.47V30h3.3v2.47Z"/><path class="cls-1" d="M13.45,30A1.65,1.65,0,0,0,11.8,28.3H8.5A1.65,1.65,0,0,0,6.85,30v2.47A1.65,1.65,0,0,0,8.5,34.08h3.3a1.65,1.65,0,0,0,1.65-1.66ZM8.5,32.42V30h3.3v2.47Z"/><path class="cls-1" d="M21.7,35.73H18.4a1.65,1.65,0,0,0-1.65,1.65v2.47A1.65,1.65,0,0,0,18.4,41.5h3.3a1.65,1.65,0,0,0,1.65-1.65V37.38A1.65,1.65,0,0,0,21.7,35.73Zm-3.3,4.12V37.38h3.3v2.47Z"/><path class="cls-1" d="M28.3,26.65h3.3A1.65,1.65,0,0,0,33.25,25V22.52a1.64,1.64,0,0,0-1.65-1.64H28.3a1.64,1.64,0,0,0-1.65,1.64V25A1.65,1.65,0,0,0,28.3,26.65Zm0-4.13h3.3V25H28.3Z"/><path class="cls-1" d="M26.65,32.42a1.65,1.65,0,0,0,1.65,1.66.83.83,0,0,0,0-1.66V30h3.3a.83.83,0,0,0,0-1.65H28.3A1.65,1.65,0,0,0,26.65,30Z"/><path class="cls-1" d="M11.8,35.73H8.5a1.65,1.65,0,0,0-1.65,1.65v2.47A1.65,1.65,0,0,0,8.5,41.5h3.3a1.65,1.65,0,0,0,1.65-1.65V37.38A1.65,1.65,0,0,0,11.8,35.73ZM8.5,39.85V37.38h3.3v2.47Z"/><path class="cls-1" d="M39,28.3A10.73,10.73,0,1,0,49.75,39,10.72,10.72,0,0,0,39,28.3Zm0,19.8A9.08,9.08,0,1,1,48.1,39,9.07,9.07,0,0,1,39,48.1Z"/><path class="cls-1" d="M43.79,35.57,37.38,42l-2.92-2.91a.82.82,0,0,0-1.17,0,.81.81,0,0,0,0,1.14l3.5,3.5a.82.82,0,0,0,1.17,0l7-7a.82.82,0,0,0-1.17-1.16Z"/></g></svg>