<svg id="Layer_1" data-name="Layer 1" xmlns="http://www.w3.org/2000/svg" viewBox="0 0 50 50"><defs><style>.cls-1{fill:#fff;}</style></defs><path class="cls-1" d="M2.9,30.62a3.12,3.12,0,0,0,.74,1.15,3.19,3.19,0,0,0,5.44-2.25V27.75a3.64,3.64,0,0,1-1.72-.28c0,.2-.09.39-.15.59A3.8,3.8,0,0,1,6,30a3.54,3.54,0,0,1-2.5.73l-.6-.06Zm18.78-4.75h6.38v-2H23.15a1.49,1.49,0,0,0-1.47,1.47Zm6.38,1.45H21.68v2.2a3.19,3.19,0,0,0,6.38,0v-2.2Zm19.86,4.84a3.35,3.35,0,0,1,1,.81,3.39,3.39,0,0,1,.81,2.21v4.88a.73.73,0,0,1-.72.73.73.73,0,0,1-.73-.73V35.18a2,2,0,0,0-1.47-1.91,4.6,4.6,0,0,1-5.52-.06,1.62,1.62,0,0,0-.43.12,1.45,1.45,0,0,0-.49.41L36.5,38.89a.72.72,0,0,1-.58.3h-5a1.34,1.34,0,0,0-.95.38,1.35,1.35,0,0,0,0,1.9,1.35,1.35,0,0,0,.95.39h6a1.36,1.36,0,0,0,.65-.14,4.27,4.27,0,0,0,1.1-1.24l2.58-3.41a.73.73,0,0,1,1.16.87l-2.46,3.25v6.32H48.3V43.35a.73.73,0,0,1,.73-.73.73.73,0,0,1,.72.73v4.89A.72.72,0,0,1,49,49H1a.73.73,0,0,1-.73-.72V43.35A.73.73,0,0,1,1,42.62a.73.73,0,0,1,.72.73v4.16h8.38V41.19L7.62,37.94a.73.73,0,0,1,1.16-.87l2.52,3.34.69.92a1.44,1.44,0,0,0,.47.39,1.3,1.3,0,0,0,.61.14h6a1.35,1.35,0,0,0,.95-.39,1.35,1.35,0,0,0,0-1.9,1.34,1.34,0,0,0-.95-.38h-5a.74.74,0,0,1-.58-.3L9.61,33.74a1.31,1.31,0,0,0-.92-.53,4.6,4.6,0,0,1-5.52.06,2,2,0,0,0-1,.62,2,2,0,0,0-.48,1.29v4.88a.73.73,0,0,1-.72.73.73.73,0,0,1-.73-.73V35.18A3.44,3.44,0,0,1,1.08,33a3.5,3.5,0,0,1,1-.79,4.64,4.64,0,0,1-.83-2.64V25.33a2.94,2.94,0,0,1,2.92-2.92H7.61a2.94,2.94,0,0,1,2.92,2.92v4.19a4.67,4.67,0,0,1-.75,2.53,2.69,2.69,0,0,1,1,.82l3.67,4.86h2.9V34.79a3,3,0,0,1,1.16-2.22,7.37,7.37,0,0,1,2.09-1.27,4.6,4.6,0,0,1-.36-1.78V25.33a2.94,2.94,0,0,1,2.92-2.92h5.63a.73.73,0,0,1,.73.73v6.38a4.7,4.7,0,0,1-.32,1.69,7.93,7.93,0,0,1,2.24,1.29,3.07,3.07,0,0,1,1.23,2.29v2.94h2.9l3.67-4.86a2.9,2.9,0,0,1,1-.82,4.59,4.59,0,0,1-.76-2.53V25.33a2.94,2.94,0,0,1,2.92-2.92h3.44a2.88,2.88,0,0,1,2.06.86,2.91,2.91,0,0,1,.86,2.06v4.19a4.64,4.64,0,0,1-.83,2.64Zm-.82-1.54-.6.06A3.52,3.52,0,0,1,44,30a3.75,3.75,0,0,1-1.22-1.89,4.2,4.2,0,0,1-.14-.59,3.69,3.69,0,0,1-1.73.28v1.77a3.18,3.18,0,0,0,5.44,2.25,3.12,3.12,0,0,0,.74-1.15ZM40.92,26.3a2.37,2.37,0,0,0,1.8-.54.77.77,0,0,1,.47-.2.73.73,0,0,1,.76.69,5.69,5.69,0,0,0,.23,1.38,2.37,2.37,0,0,0,.73,1.2,2.14,2.14,0,0,0,1.52.4,5,5,0,0,0,.87-.12V25.33a1.49,1.49,0,0,0-1.47-1.47H42.39a1.5,1.5,0,0,0-1.47,1.47Zm-31.84,0v-1a1.49,1.49,0,0,0-1.47-1.47H4.17A1.49,1.49,0,0,0,2.7,25.33v3.78a5,5,0,0,0,.87.12,2.14,2.14,0,0,0,1.52-.4,2.46,2.46,0,0,0,.74-1.2,5.68,5.68,0,0,0,.22-1.38.73.73,0,0,1,.76-.69.74.74,0,0,1,.46.2A2.37,2.37,0,0,0,9.08,26.3Zm12.28,6.25a6.5,6.5,0,0,0-1.9,1.09,1.69,1.69,0,0,0-.67,1.15v2.94h.28a2.79,2.79,0,0,1,2.45,4.13h7a2.78,2.78,0,0,1-.34-1.34,2.8,2.8,0,0,1,2.79-2.79h.28V34.79a1.72,1.72,0,0,0-.72-1.19,6.76,6.76,0,0,0-2-1.13,3.11,3.11,0,0,1-.29.33,4.64,4.64,0,0,1-6.56,0l-.23-.25ZM6.29,6.41a.73.73,0,0,1-.72-.73A.72.72,0,0,1,6.29,5H19.72a.72.72,0,0,1,.72.72.73.73,0,0,1-.72.73Zm0,7.63a.73.73,0,0,1-.72-.73.72.72,0,0,1,.72-.72H13a.73.73,0,0,1,.73.72A.73.73,0,0,1,13,14Zm0-3.82a.72.72,0,0,1-.72-.72.73.73,0,0,1,.72-.73H19.72a.73.73,0,0,1,.72.73.72.72,0,0,1-.72.72ZM20.46,18a1.84,1.84,0,0,0,.47.74,2,2,0,0,0,1.44.6h4.26a.73.73,0,0,1,.73.73.73.73,0,0,1-.73.72H22.37a3.44,3.44,0,0,1-2.47-1A3.57,3.57,0,0,1,19,18H8.84L5.56,21.24a.72.72,0,0,1-.51.21.73.73,0,0,1-.73-.72V17.89A4.41,4.41,0,0,1,.65,13.56V5.44A4.4,4.4,0,0,1,5.05,1H21a4.4,4.4,0,0,1,4.4,4.4V6.78H37.68a3.47,3.47,0,0,1,2.46,1,3.52,3.52,0,0,1,1,2.47v7a3.5,3.5,0,0,1-1,2.47,3.55,3.55,0,0,1-1.74,1v2.85a.73.73,0,0,1-.21.51.74.74,0,0,1-1,0l-3.28-3.29h-4a.73.73,0,0,1-.73-.72.73.73,0,0,1,.73-.73h4.26a.73.73,0,0,1,.51.22L37,21.77V20a.73.73,0,0,1,.73-.73,2,2,0,0,0,2-2v-7a2,2,0,0,0-2-2H25.36v5.33A4.4,4.4,0,0,1,21,18ZM8.54,16.5H21a3,3,0,0,0,2.95-2.94V5.44A3,3,0,0,0,21,2.49H5.05a3,3,0,0,0-2.95,3v8.12A3,3,0,0,0,5.05,16.5a.73.73,0,0,1,.72.73V19L8,16.72a.74.74,0,0,1,.51-.22ZM38.47,43.31H11.53v4.2H38.47v-4.2Z"/></svg>