<svg id="Layer_1" data-name="Layer 1" xmlns="http://www.w3.org/2000/svg" viewBox="0 0 50 50"><defs><style>.cls-1{fill:#003a5d;}</style></defs><path class="cls-1" d="M35.4-.07H7a2.9,2.9,0,0,0-2.9,2.9v9.86a1,1,0,1,0,1.93,0V2.83a1,1,0,0,1,1-1H35.4a1,1,0,0,1,1,1v36a1,1,0,0,1-1,1H7a1,1,0,0,1-1-1V20.84a1,1,0,0,0-1.93,0v18A2.9,2.9,0,0,0,7,41.69H35.4a2.9,2.9,0,0,0,2.9-2.9v-36A2.9,2.9,0,0,0,35.4-.07Z"/><path class="cls-1" d="M5.73,16.34a1,1,0,0,0-1.37,0,1,1,0,0,0,0,1.36,1,1,0,0,0,1.37,0,1,1,0,0,0,0-1.36Z"/><path class="cls-1" d="M9.6,43.92a1,1,0,0,0-.68-.29,1,1,0,0,0-.68.29A1,1,0,0,0,8,44.6a1,1,0,0,0,.29.68.92.92,0,0,0,.68.29.94.94,0,0,0,.68-.29,1,1,0,0,0,.29-.68A1,1,0,0,0,9.6,43.92Z"/><path class="cls-1" d="M41.21,3.8a1,1,0,0,0-1,1v37.9a1,1,0,0,1-1,1H12.79a1,1,0,0,0,0,1.94H39.28a2.9,2.9,0,0,0,2.9-2.9V4.77A1,1,0,0,0,41.21,3.8Z"/><path class="cls-1" d="M45.08,7.66a1,1,0,0,0-1,1v37.9a1,1,0,0,1-1,1H12.79a1,1,0,0,0,0,1.93H43.15a2.9,2.9,0,0,0,2.9-2.9V8.63A1,1,0,0,0,45.08,7.66Z"/><path class="cls-1" d="M19.74,7.08H10.46a1,1,0,0,0-1,1v9.28a1,1,0,0,0,1,1h9.28a1,1,0,0,0,1-1V8.05A1,1,0,0,0,19.74,7.08Zm-1,9.28H11.43V9h7.34Z"/><path class="cls-1" d="M16.63,22.69a1,1,0,0,0-1.37,0l-2.57,2.57-1.19-1.2a1,1,0,0,0-1.37,0,1,1,0,0,0,0,1.37L12,27.31a1,1,0,0,0,1.37,0l3.25-3.25A1,1,0,0,0,16.63,22.69Z"/><path class="cls-1" d="M32.47,24H21.19a1,1,0,1,0,0,1.94H32.47a1,1,0,0,0,0-1.94Z"/><path class="cls-1" d="M31.92,7.08H25.16a1,1,0,1,0,0,1.94h6.76a1,1,0,0,0,0-1.94Z"/><path class="cls-1" d="M31.92,11.72H25.16a1,1,0,1,0,0,1.94h6.76a1,1,0,1,0,0-1.94Z"/><path class="cls-1" d="M31.92,16.36H25.16a1,1,0,0,0,0,1.94h6.76a1,1,0,0,0,0-1.94Z"/><path class="cls-1" d="M16.63,30.07a1,1,0,0,0-1.37,0l-2.57,2.57L11.5,31.45a1,1,0,0,0-1.37,0,1,1,0,0,0,0,1.36L12,34.69a1,1,0,0,0,1.37,0l3.25-3.25A1,1,0,0,0,16.63,30.07Z"/><path class="cls-1" d="M32.47,31.35H21.19a1,1,0,1,0,0,1.93H32.47a1,1,0,1,0,0-1.93Z"/></svg>