<svg id="Layer_1" data-name="Layer 1" xmlns="http://www.w3.org/2000/svg" viewBox="0 0 50 50"><defs><style>.cls-1{fill:#003a5d;}</style></defs><path class="cls-1" d="M40.5,4.12H34.25v0a1.51,1.51,0,0,0-1.5-1.51H28.83v0A2.28,2.28,0,0,0,26.55.25h-3.1a2.28,2.28,0,0,0-2.28,2.28v0H17.25a1.51,1.51,0,0,0-1.5,1.51v0H9.5A3.84,3.84,0,0,0,5.67,8v38A3.84,3.84,0,0,0,9.5,49.75h31a3.84,3.84,0,0,0,3.83-3.83V8A3.84,3.84,0,0,0,40.5,4.12Zm-7,4.56h6.2a0,0,0,0,1,.05.05V45.15a0,0,0,0,1-.05.05H10.28a0,0,0,0,1,0-.05V8.73a0,0,0,0,1,0-.05H16.5a3.83,3.83,0,0,0,3.08,1.55H30.42A3.83,3.83,0,0,0,33.5,8.68ZM22.63,2.53a.83.83,0,0,1,.82-.83h3.1a.83.83,0,0,1,.82.83v0H22.63ZM17.2,4.08a0,0,0,0,1,.05,0h15.5a0,0,0,0,1,0,0v.77h0V6.4a2.38,2.38,0,0,1-2.38,2.37H19.58A2.38,2.38,0,0,1,17.2,6.4ZM42.87,45.92A2.38,2.38,0,0,1,40.5,48.3H9.5a2.38,2.38,0,0,1-2.37-2.38V8A2.37,2.37,0,0,1,9.5,5.58h6.25V6.4a3.68,3.68,0,0,0,.09.82H10.28A1.52,1.52,0,0,0,8.77,8.73V45.15a1.51,1.51,0,0,0,1.51,1.5H39.72a1.51,1.51,0,0,0,1.51-1.5V8.73a1.52,1.52,0,0,0-1.51-1.51H34.16a3.68,3.68,0,0,0,.09-.82V5.58H40.5A2.37,2.37,0,0,1,42.87,8Z"/><path class="cls-1" d="M14.25,21.08h6a.83.83,0,0,0,.83-.83v-6a.83.83,0,0,0-.83-.83h-6a.83.83,0,0,0-.83.83v6A.83.83,0,0,0,14.25,21.08Zm.63-6.2h4.74v4.74H14.88Z"/><path class="cls-1" d="M20.25,33.57h-6a.83.83,0,0,0-.83.83v6a.83.83,0,0,0,.83.83h6a.83.83,0,0,0,.83-.83v-6A.83.83,0,0,0,20.25,33.57Zm-.63,6.2H14.88V35h4.74Z"/><path class="cls-1" d="M21.39,23.71l-.53.52a1.49,1.49,0,0,0-1.28-.73H14.93A1.51,1.51,0,0,0,13.42,25v4.65a1.51,1.51,0,0,0,1.51,1.5h4.65a1.5,1.5,0,0,0,1.5-1.5v-.78a.73.73,0,0,0-1.46,0v.78a0,0,0,0,1,0,.05H14.93a0,0,0,0,1,0-.05V25a0,0,0,0,1,0-.05h4.65a0,0,0,0,1,0,.05v.47L18,27.07l-1-1a.72.72,0,0,0-1,1l1.55,1.55a.71.71,0,0,0,1,0l2.32-2.32h0l1.55-1.55a.72.72,0,0,0-1-1Z"/><path class="cls-1" d="M23.45,15.65h2.32a.73.73,0,1,0,0-1.45H23.45a.73.73,0,1,0,0,1.45Z"/><path class="cls-1" d="M22.72,18a.73.73,0,0,0,.73.72H35.07a.73.73,0,1,0,0-1.45H23.45A.73.73,0,0,0,22.72,18Z"/><path class="cls-1" d="M23.45,26.5H31.2a.73.73,0,1,0,0-1.45H23.45a.73.73,0,1,0,0,1.45Z"/><path class="cls-1" d="M35.07,28.15H23.45a.73.73,0,1,0,0,1.45H35.07a.73.73,0,1,0,0-1.45Z"/><path class="cls-1" d="M23.45,36.58h3.1a.73.73,0,1,0,0-1.46h-3.1a.73.73,0,1,0,0,1.46Z"/><path class="cls-1" d="M35.07,38.22H23.45a.73.73,0,1,0,0,1.46H35.07a.73.73,0,1,0,0-1.46Z"/></svg>