<svg id="Layer_1" data-name="Layer 1" xmlns="http://www.w3.org/2000/svg" viewBox="0 0 50 50"><defs><style>.cls-1{fill:#fff;}</style></defs><g id="Online_Test-Examination-Test-Computer-Pencil" data-name="Online Test-Examination-Test-Computer-Pencil"><path class="cls-1" d="M42.71,13.82v18H39.44V19.54H37.81V31.79h-31V8.93h4.08a2.45,2.45,0,0,0,2.45-2.45V2.39h22a2.48,2.48,0,0,1,2.12,1.23l1.41-.82a4.08,4.08,0,0,0-3.53-2H12.5a.83.83,0,0,0-.58.24L5.39,7.53a.83.83,0,0,0-.24.58V31.79H1.88V11.37A2.46,2.46,0,0,1,3.72,9L3.31,7.42A4.09,4.09,0,0,0,.25,11.37v24.5A4.08,4.08,0,0,0,4.33,40H15.66L15,44.85h-.91a2.45,2.45,0,0,0,0,4.9H30.46a2.45,2.45,0,1,0,0-4.9h-.91L28.93,40H40.26a4.08,4.08,0,0,0,4.08-4.08v-22Zm-31-10.28V6.48a.81.81,0,0,1-.82.81H7.93ZM30.46,46.48a.82.82,0,1,1,0,1.64H14.13a.82.82,0,1,1,0-1.64ZM16.69,44.85,17.3,40h10l.61,4.9Zm26-9a2.46,2.46,0,0,1-2.45,2.45H4.33a2.46,2.46,0,0,1-2.45-2.45V33.42H42.71Z"/><path class="cls-1" d="M37.81,35.05h1.63v1.64H37.81Z"/><path class="cls-1" d="M48.56,1.44a4.1,4.1,0,0,0-5.78,0L29.5,14.72a.79.79,0,0,0-.18.29l-2.89,7.5a.83.83,0,0,0,.47,1.06.86.86,0,0,0,.59,0L35,20.68a.79.79,0,0,0,.29-.18L48.56,7.22A4.1,4.1,0,0,0,48.56,1.44ZM33.24,19.61l-1.67.64-1.82-1.82.65-1.66Zm.31-2,11-11,1.16,1.15-11,11Zm-1.16-1.16L31.24,15.3l11-11,1.15,1.16ZM29.11,20.1l.79.79-1.28.49Zm18.29-14-.58.58L43.36,3.18l.58-.58A2.45,2.45,0,1,1,47.4,6.06Z"/><path class="cls-1" d="M19.27,10,18,11.24a4.07,4.07,0,1,0,1.16,1.15l1.25-1.25Zm-1.06,4.66a2.45,2.45,0,1,1-2.45-2.45,2.35,2.35,0,0,1,1,.25l-2.44,2.44L15.52,16,18,13.59a2.41,2.41,0,0,1,.24,1.05Z"/><path class="cls-1" d="M23.11,12.19h5.72v1.63H23.11Z"/><path class="cls-1" d="M23.11,15.46h3.27v1.63H23.11Z"/><path class="cls-1" d="M19.27,19.78,18,21a4.07,4.07,0,1,0,1.16,1.15l1.25-1.26Zm-1.06,4.66A2.45,2.45,0,1,1,15.76,22a2.35,2.35,0,0,1,1,.24l-2.44,2.45,1.15,1.15L18,23.39a2.38,2.38,0,0,1,.24,1.05Z"/><path class="cls-1" d="M23.11,22h1.63v1.63H23.11Z"/><path class="cls-1" d="M23.11,25.26h6.53v1.63H23.11Z"/></g></svg>