<svg id="Layer_1" data-name="Layer 1" xmlns="http://www.w3.org/2000/svg" viewBox="0 0 50 50"><defs><style>.cls-1{fill:#003a5d;}</style></defs><path class="cls-1" d="M18.4,30.77a.83.83,0,0,0,.82.83h3.3a.83.83,0,0,0,.83-.83V25.82a.83.83,0,0,0-.83-.82H19.23a.83.83,0,0,0-.83.82v4.95Zm1.65-4.12H21.7V30H20.05Z"/><path class="cls-1" d="M19.23,21.7h3.29a.83.83,0,0,0,.83-.82V15.93a.83.83,0,0,0-.83-.83H19.23a.83.83,0,0,0-.83.83v4.95A.83.83,0,0,0,19.23,21.7Zm.82-4.95H21.7v3.3H20.05Z"/><path class="cls-1" d="M13.05,15.81,25,8.64l12,7.17a.8.8,0,0,0,.42.11.82.82,0,0,0,.43-1.53l-12-7.18V1.9H30V3.55H27.48a.83.83,0,1,0,0,1.65h3.29a.83.83,0,0,0,.83-.82V1.07a.83.83,0,0,0-.83-.82H25a.82.82,0,0,0-.82.82V7.21l-12,7.18a.83.83,0,0,0,.85,1.42Z"/><path class="cls-1" d="M9.33,31.6a.82.82,0,0,0,.82-.82v-5A.83.83,0,0,0,9.33,25H6a.83.83,0,0,0-.82.83v1.65a.83.83,0,0,0,1.65,0v-.83H8.5v4.13A.83.83,0,0,0,9.33,31.6Z"/><path class="cls-1" d="M15.1,42.33V18.4a.83.83,0,1,0-1.65,0V42.33a.83.83,0,0,0,1.65,0Z"/><path class="cls-1" d="M11,46.45H39a.83.83,0,1,0,0-1.65H31.6V36.55h.82a.83.83,0,1,0,0-1.65H17.57a.83.83,0,0,0,0,1.65h.83V44.8H11a.83.83,0,0,0,0,1.65Zm14.85-5a.83.83,0,1,0,0-1.65v-3.3H30V44.8H25.82V41.5Zm-5.77-5h4.13v3.3a.83.83,0,1,0,0,1.65v3.3H20.05Z"/><path class="cls-1" d="M44,35.72h-3.3a.83.83,0,0,0-.83.83v5a.82.82,0,0,0,.83.82H44a.82.82,0,0,0,.82-.82v-5A.83.83,0,0,0,44,35.72Zm-.83,5H41.5V37.38h1.65Z"/><path class="cls-1" d="M44,25.82h-3.3a.83.83,0,0,0-.83.83v5a.82.82,0,0,0,.83.82H44a.82.82,0,0,0,.82-.82v-5A.83.83,0,0,0,44,25.82Zm-.83,4.95H41.5V27.48h1.65Z"/><path class="cls-1" d="M42.33,48.1H7.68a.83.83,0,1,0,0,1.65H42.33a.83.83,0,0,0,0-1.65Z"/><path class="cls-1" d="M48.93,18.4a.83.83,0,0,0-.83.82v.83H39a.83.83,0,1,0,0,1.65H48.1V48.92a.83.83,0,1,0,1.65,0V19.22A.82.82,0,0,0,48.93,18.4Z"/><path class="cls-1" d="M26.65,30.77a.83.83,0,0,0,.82.83h3.3a.83.83,0,0,0,.83-.83V25.82a.83.83,0,0,0-.83-.82H27.48a.83.83,0,0,0-.83.82v4.95Zm1.65-4.12H30V30H28.3v-3.3Z"/><path class="cls-1" d="M8.5,40.67C8.5,40.57,8.45,30,4.37,30S.25,40.57.25,40.67a4.14,4.14,0,0,0,3.3,4v4.21a.83.83,0,0,0,1.65,0V44.72A4.14,4.14,0,0,0,8.5,40.67ZM4.38,43.15A2.48,2.48,0,0,1,1.9,40.67c0-4.11,1.1-9.07,2.48-9.07s2.47,5,2.47,9.07A2.48,2.48,0,0,1,4.38,43.15Z"/><path class="cls-1" d="M36.55,42.33V17.58a.83.83,0,1,0-1.65,0V42.33a.83.83,0,0,0,1.65,0Z"/><path class="cls-1" d="M27.48,21.7h3.29a.83.83,0,0,0,.83-.82V15.93a.83.83,0,0,0-.83-.83H27.48a.83.83,0,0,0-.83.83v4.95A.83.83,0,0,0,27.48,21.7Zm.82-4.95H30v3.3H28.3v-3.3Z"/><path class="cls-1" d="M1.07,29.13a.83.83,0,0,0,.83-.83V21.7H11a.83.83,0,1,0,0-1.65H1.9v-.82a.83.83,0,1,0-1.65,0V28.3A.83.83,0,0,0,1.07,29.13Z"/></svg>