<svg id="Layer_1" data-name="Layer 1" xmlns="http://www.w3.org/2000/svg" viewBox="0 0 50 50"><defs><style>.cls-1{fill:#fff;}</style></defs><g id="Page-1"><g id="_001---Degree" data-name="001---Degree"><path id="Shape" class="cls-1" d="M48.65,8.6,25.56.35a1.69,1.69,0,0,0-1.13,0L1.35,8.6a1.65,1.65,0,0,0,0,3.1l11.27,4v5.14c0,3.21,11.11,3.3,12.38,3.3s12.37-.09,12.37-3.3V15.73l2.48-.88v1.9A1.65,1.65,0,0,0,41.5,18.4h1.65a1.65,1.65,0,0,0,1.65-1.65V14.27a2.31,2.31,0,0,0-.27-1.09l4.13-1.48a1.65,1.65,0,0,0,0-3.1ZM35.72,19.06C32.58,17.63,26,17.57,25,17.57s-7.58.06-10.73,1.49V11.87c.5-.63,4.39-1.72,10.73-1.72s10.23,1.09,10.72,1.72ZM25,22.52c-6.11,0-9.94-1-10.66-1.65.72-.64,4.56-1.65,10.66-1.65s9.94,1,10.66,1.65C34.94,21.52,31.1,22.52,25,22.52ZM40.24,13l-2.87,1V11.8c0-3.21-11.1-3.3-12.37-3.3s-12.38.09-12.38,3.3V14L1.9,10.15,25,1.9,41.5,7.79V12A2.47,2.47,0,0,0,40.24,13Zm2.91,3.79H41.5V14.27a.83.83,0,0,1,1.65,0Zm0-4.83V8.38l5,1.77Z"/><path id="Shape-2" data-name="Shape" class="cls-1" d="M47.27,25.82l-.14,0A137.76,137.76,0,0,1,25,27.47,137.76,137.76,0,0,1,2.87,25.84l-.15,0c-.57,0-2.47.66-2.47,9.08S2.15,44,2.72,44h.15a129.09,129.09,0,0,1,17-1.55l-1.61,3.86a1.64,1.64,0,0,0,2.18,2.12l.63-.27.27.63a1.65,1.65,0,0,0,1.52,1h0a1.64,1.64,0,0,0,1.51-1l1.43-3.43,1.43,3.42a1.67,1.67,0,0,0,1.52,1h0a1.66,1.66,0,0,0,1.52-1l.27-.63.62.26A1.64,1.64,0,0,0,33,48.07a1.65,1.65,0,0,0,.38-1.8l-1.58-3.79A126.89,126.89,0,0,1,47.13,44a.38.38,0,0,0,.15,0c.57,0,2.47-.65,2.47-9.07s-1.9-9.08-2.47-9.08ZM27.64,29.1A17.33,17.33,0,0,1,28.23,33a5.72,5.72,0,0,0-5.74.53,22.55,22.55,0,0,0-.56-4.4c1,0,2,0,3.07,0ZM25.82,42.32A4.13,4.13,0,1,1,30,38.2,4.12,4.12,0,0,1,25.82,42.32ZM2.72,27.89a22.72,22.72,0,0,1,.83,7,22.72,22.72,0,0,1-.83,7,23,23,0,0,1-.82-7A23,23,0,0,1,2.72,27.89ZM4.39,42.05A23.07,23.07,0,0,0,5.2,34.9a23,23,0,0,0-.81-7.15,144.2,144.2,0,0,0,15.81,1.3,21,21,0,0,1,.67,5.85v.35a5.72,5.72,0,0,0-.27,5.4l0,.09A143.63,143.63,0,0,0,4.39,42.05ZM22.86,48.1l-.6-1.39a.84.84,0,0,0-1.08-.43l-1.39.62,1.93-4.64a5.73,5.73,0,0,0,2.92,1.59Zm7.61-1.82a.84.84,0,0,0-1.08.43l-.61,1.38L27,43.85a5.8,5.8,0,0,0,2.92-1.59l1.93,4.62Zm16.64-4a134.17,134.17,0,0,0-16-1.48l-.05-.14a5.75,5.75,0,0,0-1.12-6.51,22.81,22.81,0,0,0-.58-5.08,139.11,139.11,0,0,0,17.76-1.55c.38.65,1,3.22,1,7.38s-.61,6.73-1,7.38Z"/></g></g></svg>