<svg id="Layer_1" data-name="Layer 1" xmlns="http://www.w3.org/2000/svg" viewBox="0 0 50 50"><defs><style>.cls-1{fill:#003a5d;}</style></defs><path class="cls-1" d="M17.37,6.64A1,1,0,0,0,16,8a1,1,0,0,0,1.37,0,1,1,0,0,0,0-1.37Z"/><path class="cls-1" d="M48.77,47.8h-5a4.13,4.13,0,0,0,.15-1.11,4.21,4.21,0,0,0-3.47-4.14V39.27A10.24,10.24,0,0,0,46.71,21.8,7.23,7.23,0,0,0,33.12,19V7.32a1,1,0,0,0-1-1H30.51V1.22a1,1,0,0,0-1-1H3.83a1,1,0,0,0-1,1V6.36H1.22a1,1,0,0,0-1,1V48.78a1,1,0,0,0,1,1l47.55,0a1,1,0,1,0,0-1.93ZM33.88,22.94a.93.93,0,0,0,.32-.68,5.3,5.3,0,0,1,10.6,0,.93.93,0,0,0,.31.68,8.31,8.31,0,0,1-4.65,14.39V33.62h0V29.86l1.73-1.73a1,1,0,0,0-1.37-1.36l-.36.35v-.26a1,1,0,1,0-1.93,0v2.59h0v1.83l-2.07-2.07a1,1,0,0,0-1.37,0,1,1,0,0,0,0,1.37L38.53,34v3.31a8.32,8.32,0,0,1-4.65-14.39Zm-.76,14.14a10.17,10.17,0,0,0,5.41,2.19v1.47a5.69,5.69,0,0,0-3.29-1.06,5.76,5.76,0,0,0-2.12.41ZM12.63,47.82v-12h6.75l-5,5.05a1,1,0,0,0,1.37,1.37l5.05-5v4.44l-6.19,6.18Zm8.12,0H17.3l3.45-3.45v3.45Zm4.41,0H22.68v-13a1,1,0,0,0-1-1h-10a1,1,0,0,0-1,1v13H6.06v-9.1a1,1,0,0,0-1.94,0v9.1H2.19V8.29H12.92a1,1,0,1,0,0-1.94H4.8V2.18H28.57V6.35h-8a1,1,0,0,0,0,1.94H31.18v14.8a10.23,10.23,0,0,0,0,12,1.11,1.11,0,0,0,0,.19v6.12a5.23,5.23,0,0,0-.91,1.23,4.29,4.29,0,0,0-1.07-.13A4.21,4.21,0,0,0,25,46.69,4.34,4.34,0,0,0,25.16,47.82Zm16.54,0H27.23a2.27,2.27,0,0,1,2-3.38,2.2,2.2,0,0,1,1.1.29,1,1,0,0,0,.83,0,.94.94,0,0,0,.56-.59,3.73,3.73,0,0,1,7-.32.94.94,0,0,0,.94.57h.13a2.27,2.27,0,0,1,2,3.38Z"/><path class="cls-1" d="M10.6,13.18H6a1,1,0,0,0-1,1v5.42a1,1,0,0,0,1,1H10.6a1,1,0,0,0,1-1V14.14A1,1,0,0,0,10.6,13.18Zm-1,5.41H6.93V15.11h2.7Z"/><path class="cls-1" d="M19,13.18H14.37a1,1,0,0,0-1,1v5.42a1,1,0,0,0,1,1H19a1,1,0,0,0,1-1V14.14A1,1,0,0,0,19,13.18Zm-1,5.41H15.33V15.11H18Z"/><path class="cls-1" d="M27.41,13.18H22.78a1,1,0,0,0-1,1v5.42a1,1,0,0,0,1,1h4.63a1,1,0,0,0,1-1V14.14A1,1,0,0,0,27.41,13.18Zm-1,5.41H23.74V15.11h2.71v3.48Z"/><path class="cls-1" d="M10.6,24H6a1,1,0,0,0-1,1v5.41a1,1,0,0,0,1,1H10.6a1,1,0,0,0,1-1V25A1,1,0,0,0,10.6,24Zm-1,5.41H6.93V25.93h2.7Z"/><path class="cls-1" d="M19,24H14.37a1,1,0,0,0-1,1v5.41a1,1,0,0,0,1,1H19a1,1,0,0,0,1-1V25A1,1,0,0,0,19,24Zm-1,5.41H15.33V25.93H18Z"/><path class="cls-1" d="M27.41,24H22.78a1,1,0,0,0-1,1v5.41a1,1,0,0,0,1,1h4.63a1,1,0,0,0,1-1V25A1,1,0,0,0,27.41,24Zm-1,5.41H23.74V25.93h2.71v3.48Z"/><path class="cls-1" d="M5.77,34.18a1,1,0,0,0-.68-.28,1,1,0,0,0-.68.28,1,1,0,0,0,0,1.37,1,1,0,0,0,.68.28,1,1,0,0,0,.68-.28,1,1,0,0,0,0-1.37Z"/></svg>