<svg id="Layer_1" data-name="Layer 1" xmlns="http://www.w3.org/2000/svg" viewBox="0 0 50 50"><defs><style>.cls-1{fill:#c22026;}</style></defs><path class="cls-1" d="M40.07,25.17a5.38,5.38,0,1,0-5.39-5.38A5.39,5.39,0,0,0,40.07,25.17Zm0-8.61a3.23,3.23,0,1,1-3.23,3.23A3.23,3.23,0,0,1,40.07,16.56Zm-32.69-8a1,1,0,0,0-1.31,1.53l5.22,4.49a5.26,5.26,0,0,0-1.2-.14,5.42,5.42,0,1,0,5,3.4l6.54,5.62a14,14,0,0,0-7.53,4.84A9.66,9.66,0,0,0,.25,37,1.08,1.08,0,0,0,2.4,37a7.53,7.53,0,0,1,10.47-6.94A14,14,0,0,0,11,37a1.08,1.08,0,0,0,2.15,0A11.85,11.85,0,0,1,23.72,25.24L36.82,36.5c0,.17,0,.34,0,.51a1.07,1.07,0,0,0,1.07,1.07,1,1,0,0,0,.55-.17l7,6.05a1,1,0,0,0,.66.25,1,1,0,0,0,.66-1.78ZM10.09,23a3.23,3.23,0,1,1,3.23-3.23A3.23,3.23,0,0,1,10.09,23Zm14.72-2.16H25a7.54,7.54,0,1,0-7.53-7.53,8.2,8.2,0,0,0,.11,1.32ZM25,8a5.38,5.38,0,1,1-5.38,5.38A5.38,5.38,0,0,1,25,8ZM40.07,27.32a9.78,9.78,0,0,0-4.16.95,14,14,0,0,0-8.31-5l7,6h0l1.52,1.31h0l2.08,1.79a13.69,13.69,0,0,0-1.06-2.3A7.52,7.52,0,0,1,47.6,37a1.08,1.08,0,0,0,2.15,0A9.7,9.7,0,0,0,40.07,27.32Z"/></svg>