<svg id="Layer_1" data-name="Layer 1" xmlns="http://www.w3.org/2000/svg" viewBox="0 0 50 50"><defs><style>.cls-1{fill:#003a5d;}</style></defs><path class="cls-1" d="M48.7,30.29l-1.63-.72a.73.73,0,1,0-.59,1.33l1.63.72c.12.05.14.12.14.17s0,.12-.14.16l-13.36,5.9a.42.42,0,0,1-.27,0L27.93,35l4.85-2.23c1.75,1.06,4.64.25,4.64-1.53,0-1.12-1.23-2-2.81-2-1.77,0-3.06,1.1-2.76,2.36l-5.7,2.62-5-2.23c-.18-.07-.18-.25,0-.33l13.37-5.89a.32.32,0,0,1,.27,0l9.06,4a.72.72,0,0,0,1-.37.73.73,0,0,0-.37-1l-5.28-2.33V9a2.41,2.41,0,0,0-2.41-2.41H30.06V4.26a4,4,0,0,0-4-4H23.29a.73.73,0,0,0,0,1.46h2.76A2.55,2.55,0,0,1,28.6,4.26V6.55H27.42V4.26a1.37,1.37,0,0,0-1.37-1.37H13.37A1.38,1.38,0,0,0,12,4.26V6.55H10.81V4.26a2.56,2.56,0,0,1,2.56-2.55h7a.73.73,0,1,0,0-1.46h-7a4,4,0,0,0-4,4V6.55H2.7A2.42,2.42,0,0,0,.29,9v17.7a.73.73,0,0,0,1.46,0V18.4a7.81,7.81,0,0,0,4.67,3.1v2.14A1.56,1.56,0,0,0,8,25.2h2.19a1.56,1.56,0,0,0,1.56-1.56V21.69h16v1.95a1.56,1.56,0,0,0,1.56,1.56h2.19A1.56,1.56,0,0,0,33,23.64V21.5a7.82,7.82,0,0,0,4.66-3.1v7l-2.32-1a1.83,1.83,0,0,0-1.45,0l-13.37,5.9a1.62,1.62,0,0,0,0,3l2.55,1.12v.48h-17a4.33,4.33,0,0,1-4.32-4.32v-1a.73.73,0,0,0-1.46,0v1a5.78,5.78,0,0,0,5.78,5.78h17v5.41c0,1.07.93,1.94,2.41,2.59v1L23,48.58a.73.73,0,0,0,.15,1,.72.72,0,0,0,1-.14l1.29-1.72V49a.73.73,0,1,0,1.46,0V47.74l1.3,1.72a.72.72,0,0,0,.58.29.73.73,0,0,0,.58-1.17l-2.46-3.26v-.44c6.79,2,19.22.8,19.22-3.12V34.41l2.54-1.12a1.62,1.62,0,0,0,0-3Zm-14.09.37c.89,0,1.35.4,1.35.54s-.46.55-1.35.55-1.35-.41-1.35-.55S33.73,30.66,34.61,30.66ZM13.45,4.35H26v2.2H13.45ZM10.27,23.64a.1.1,0,0,1-.1.1H8a.09.09,0,0,1-.1-.1V21.69h2.39Zm0-3.4H7.88v-2a.09.09,0,0,1,.1-.1h2.19a.1.1,0,0,1,.1.1Zm21.27,3.4a.1.1,0,0,1-.1.1H29.25a.09.09,0,0,1-.1-.1V21.69h2.39Zm0-3.41H29.15v-2a.09.09,0,0,1,.1-.1h2.19a.1.1,0,0,1,.1.1ZM33,20V18.24a1.56,1.56,0,0,0-1.56-1.56H29.25a1.56,1.56,0,0,0-1.56,1.56v2h-16v-2a1.56,1.56,0,0,0-1.56-1.56H8a1.56,1.56,0,0,0-1.56,1.56V20a6.41,6.41,0,0,1-4.67-6.15V9a1,1,0,0,1,1-1h34a1,1,0,0,1,.95,1v4.89A6.4,6.4,0,0,1,33,20ZM25.48,42.74c-.72-.41-.95-.78-.95-1v-6.7l.95.42Zm19.22-1c0,.31-.56,1-2.66,1.67a29.29,29.29,0,0,1-15.1-.07V36.11c.7.32-.31-.13,7,3.07a1.75,1.75,0,0,0,1.45,0l9.36-4.12Z"/></svg>