<svg id="Layer_1" data-name="Layer 1" xmlns="http://www.w3.org/2000/svg" viewBox="0 0 50 50"><defs><style>.cls-1{fill:#fff;}</style></defs><path class="cls-1" d="M49.75,21H48l-2.68,1.4a4.41,4.41,0,0,0-1-.39L41,21.18V20.8a5.62,5.62,0,0,0,2.39-4.58v-1.4A5.74,5.74,0,0,0,38,9h-.46l.88-2L34.14,2.78,31.65,4.4a13.21,13.21,0,0,0-3-1.24L28,.25H22l-.62,2.91a13.21,13.21,0,0,0-3,1.24L15.86,2.78,11.64,7l.85,2H12.4a5.59,5.59,0,0,0-5.76,5.58v1.6A5.59,5.59,0,0,0,9,20.8v.38l-2.19.55-4-2.32H.25V36L8.1,38.57H9.63l.2-.67,2.4,1.45a2.49,2.49,0,0,0,2.4,2.41A2.48,2.48,0,0,0,17,44.15a2.49,2.49,0,0,0,2.39,2.4,2.48,2.48,0,0,0,3.88,2l.71.62a2.42,2.42,0,0,0,1.61.61h.14a2.43,2.43,0,0,0,2.43-2.4A2.44,2.44,0,0,0,30.59,45,2.43,2.43,0,0,0,33,42.56a2.46,2.46,0,0,0,2.4-2.45,1.93,1.93,0,0,0,0-.24l14.38-7.19Zm-8-6.19v1.4a4,4,0,0,1-2,3.45l-.4.23v2.53l4,1-8.78,4.62V25.9a4,4,0,0,0-1.14-2.79l2.74-.68V19.9l-.4-.23a4,4,0,0,1-2-3.45v-1.6a4,4,0,0,1,4.12-4A4.14,4.14,0,0,1,41.77,14.82ZM26.2,27.42l-3.61-1.16A10,10,0,0,0,17.47,26l-.45.1V25.9a2.4,2.4,0,0,1,1.81-2.33l4.57-1.14V19.9l-.4-.23a4,4,0,0,1-2-3.45v-1.6a4,4,0,0,1,4.11-4A4.13,4.13,0,0,1,29,14.82v1.4a4,4,0,0,1-2,3.45l-.4.23v2.53l4.57,1.14A2.4,2.4,0,0,1,33,25.9v3l-.19.1H32.3l-4.91-1.4A4.82,4.82,0,0,0,26.2,27.42Zm-9-15.22a8.78,8.78,0,0,1,15.57-.07,5.59,5.59,0,0,0-.58,2.49v1.6a5.59,5.59,0,0,0,2.39,4.58v.38l-3.19.8-3.2-.8V20.8a5.6,5.6,0,0,0,2.4-4.58v-1.4A5.75,5.75,0,0,0,25.17,9a5.6,5.6,0,0,0-5.76,5.59v1.6a5.6,5.6,0,0,0,2.4,4.58v.38l-3.2.8-3.19-.8V20.8a5.59,5.59,0,0,0,2.39-4.58v-1.4A5.9,5.9,0,0,0,17.2,12.2ZM13.52,7.37l2.55-2.55,2.25,1.46L18.75,6a12.08,12.08,0,0,1,3.46-1.44l.49-.11.55-2.62h3.5l.55,2.62.49.11A11.91,11.91,0,0,1,31.25,6l.43.26,2.25-1.46,2.54,2.55-.9,2.12a5.53,5.53,0,0,0-1.69,1.12l-.09.1a10.37,10.37,0,0,0-17.61,0,5.44,5.44,0,0,0-1.76-1.25ZM10.63,22.43V19.9l-.4-.23a4,4,0,0,1-2-3.45v-1.6a4,4,0,0,1,4.12-4,4.14,4.14,0,0,1,3.87,4.19v1.4a4,4,0,0,1-2,3.45l-.4.23v2.53l2.74.68a4,4,0,0,0-1.14,2.79v.59L12.93,27l.06-.22,0-1.48L8.81,22.88ZM1.85,21h.58l5.74,3.35L5.27,36,1.85,34.8ZM8.36,37l-1.57-.53L9.61,25.19l1.82,1.07v.22L8.43,37Zm5.46,2.29a.94.94,0,0,1,.26-.63l1.41-1.4a.88.88,0,0,1,.63-.26.9.9,0,0,1,.9.89.87.87,0,0,1-.27.63l-1.4,1.41a.94.94,0,0,1-.63.26A.9.9,0,0,1,13.82,39.27Zm2.4,2.4a.86.86,0,0,1,.26-.63l1.4-1.41a.94.94,0,0,1,.64-.26.9.9,0,0,1,.63,1.53l-1.4,1.4a.9.9,0,0,1-1.53-.63Zm2.39,2.39a.94.94,0,0,1,.26-.63L20.28,42a.9.9,0,0,1,1.53.63.87.87,0,0,1-.27.63l-1.4,1.41a.94.94,0,0,1-.63.26A.9.9,0,0,1,18.61,44.06Zm3.29,3.29a.89.89,0,0,1-.89-.89.86.86,0,0,1,.26-.63l1.4-1.41a.94.94,0,0,1,.64-.26.9.9,0,0,1,.63,1.53l-1.4,1.4A.9.9,0,0,1,21.9,47.35Zm3.86.8h-.14a.79.79,0,0,1-.55-.21l-.6-.52.6-.6a2.61,2.61,0,0,0,.5-.74l.73.6a.83.83,0,0,1-.54,1.47ZM32.92,41h-.13a.85.85,0,0,1-.55-.2l-4.33-3.61-1,1.23,4.21,3.5a.83.83,0,0,1-.54,1.47h-.17a.86.86,0,0,1-.53-.19l-4.34-3.61-1,1.22,4.2,3.51a.82.82,0,0,1,.3.64.83.83,0,0,1-.83.83,1.28,1.28,0,0,1-.84-.31L25.54,44a2.52,2.52,0,0,0-2.15-1.4A2.47,2.47,0,0,0,21,40.18a2.5,2.5,0,0,0-2.4-2.4,2.48,2.48,0,0,0-4.24-1.67L13,37.51a2,2,0,0,0-.23.28l-2.45-1.48,2.15-7.52,5.39-1.2a8.19,8.19,0,0,1,4.28.19l1.18.38-4,2a2.68,2.68,0,0,0-1.48,2.4v.15a2.68,2.68,0,0,0,2.68,2.68A2.64,2.64,0,0,0,21.86,35l3-1.79a1.66,1.66,0,0,1,1.91.19l6.75,6.07a.86.86,0,0,1-.58,1.5Zm15.23-9.28L34.7,38.42l-.13-.14-6.75-6.07a3.21,3.21,0,0,0-3.8-.36l-3,1.78a1.08,1.08,0,0,1-1.63-.93v-.15a1.09,1.09,0,0,1,.6-1l4.45-2.22A3.41,3.41,0,0,1,27,29.13l5,1.43,1.21,0,15-7.88Z"/></svg>