<svg id="Layer_1" data-name="Layer 1" xmlns="http://www.w3.org/2000/svg" viewBox="0 0 50 50"><defs><style>.cls-1{fill:#7649d7;}</style></defs><path class="cls-1" d="M38.24,39.12v-36a2.91,2.91,0,0,0-2.9-2.9H6.92A2.9,2.9,0,0,0,4,3.15V13A1,1,0,1,0,6,13V3.15a1,1,0,0,1,1-1H35.34a1,1,0,0,1,1,1v36a1,1,0,0,1-1,1H6.92a1,1,0,0,1-1-1v-18a1,1,0,0,0-1.93,0v18A2.91,2.91,0,0,0,6.92,42H35.34A2.92,2.92,0,0,0,38.24,39.12ZM5,18.31A1,1,0,0,0,5.67,18,1,1,0,0,0,6,17.34a1,1,0,0,0-.28-.68,1,1,0,0,0-1.37,0,1,1,0,0,0-.28.68A1,1,0,0,0,4.3,18,1,1,0,0,0,5,18.31ZM8.86,44a1,1,0,0,0-.68.29,1,1,0,0,0,0,1.37,1,1,0,0,0,.68.28,1,1,0,0,0,.68-.28A1,1,0,0,0,8.86,44Zm3.87,1.94H39.21a2.9,2.9,0,0,0,2.9-2.9V5.09a1,1,0,1,0-1.94,0V43a1,1,0,0,1-1,1H12.73a1,1,0,1,0,0,1.93ZM45,8a1,1,0,0,0-1,1v37.9a1,1,0,0,1-1,1H12.73a1,1,0,1,0,0,1.93H43.08a2.9,2.9,0,0,0,2.9-2.9V9A1,1,0,0,0,45,8ZM19.68,7.4H10.4a1,1,0,0,0-1,1v9.28a1,1,0,0,0,1,1h9.28a1,1,0,0,0,1-1V8.37A1,1,0,0,0,19.68,7.4Zm-1,9.29H11.37V9.34h7.34ZM16.57,23a1,1,0,0,0-1.37,0l-2.57,2.57-1.19-1.2a1,1,0,0,0-1.37,0,1,1,0,0,0,0,1.37L12,27.63a1,1,0,0,0,.68.28,1,1,0,0,0,.69-.28l3.25-3.25A1,1,0,0,0,16.57,23Zm3.59,2.28a1,1,0,0,0,1,1H32.4a1,1,0,0,0,0-1.94H21.13A1,1,0,0,0,20.16,25.29ZM25.09,9.34h6.77a1,1,0,0,0,0-1.94H25.09a1,1,0,1,0,0,1.94Zm0,4.64h6.77a1,1,0,0,0,0-1.94H25.09a1,1,0,1,0,0,1.94Zm0,4.64h6.77a1,1,0,0,0,0-1.93H25.09a1,1,0,1,0,0,1.93ZM15.2,30.39,12.63,33l-1.19-1.19a1,1,0,0,0-1.37,0,1,1,0,0,0,0,1.36L12,35a1,1,0,0,0,.68.29,1,1,0,0,0,.69-.29l3.25-3.25a1,1,0,0,0-1.37-1.37Zm17.2,1.28H21.13a1,1,0,1,0,0,1.93H32.4a1,1,0,1,0,0-1.93Z"/></svg>