<svg id="Layer_1" data-name="Layer 1" xmlns="http://www.w3.org/2000/svg" viewBox="0 0 50 50"><defs><style>.cls-1{fill:#ff723a;}</style></defs><path class="cls-1" d="M40.28,38.76a1,1,0,0,0-1,1v7.12a1,1,0,0,1-1,1H3.15a1,1,0,0,1-1-1V3.15a1,1,0,0,1,1-1H38.34a1,1,0,0,1,1,1V13.67a1,1,0,0,0,1.93,0V3.15a2.9,2.9,0,0,0-2.9-2.9H3.15a2.9,2.9,0,0,0-2.9,2.9v43.7a2.9,2.9,0,0,0,2.9,2.9H38.34a2.9,2.9,0,0,0,2.9-2.9V39.73A1,1,0,0,0,40.28,38.76ZM20.75,5.47a8.89,8.89,0,0,0-6.11,15.36l.11.1a8.88,8.88,0,0,0,12,0l.11-.1a8.89,8.89,0,0,0-6.1-15.36Zm0,15.86a6.93,6.93,0,0,1-4.21-1.42,4.83,4.83,0,0,1,8.41,0A6.9,6.9,0,0,1,20.75,21.33ZM19.2,14v-.63a1.55,1.55,0,1,1,3.09,0V14a1.55,1.55,0,1,1-3.09,0Zm7.15,4.51A6.68,6.68,0,0,0,23.5,16.1,3.4,3.4,0,0,0,24.23,14v-.63a3.48,3.48,0,0,0-7,0V14A3.45,3.45,0,0,0,18,16.1a6.8,6.8,0,0,0-2.85,2.39,7,7,0,1,1,11.21,0ZM26,42.59H20.75a1,1,0,0,0,0,1.94H26a1,1,0,0,0,0-1.94Zm0-5.41H12.24a1,1,0,1,0,0,1.93H26a1,1,0,0,0,0-1.93Zm0-5.41H12.24a1,1,0,1,0,0,1.93H26a1,1,0,0,0,0-1.93ZM8.79,26.64a1,1,0,0,0-1.37,0,1,1,0,0,0,0,1.36,1,1,0,0,0,.69.29,1,1,0,0,0,.68-1.65Zm0,5.41a1,1,0,0,0-.68-.28,1,1,0,0,0-.69.28,1,1,0,0,0,0,1.37,1,1,0,0,0,.69.28,1,1,0,0,0,.68-.28,1,1,0,0,0,0-1.37Zm-.68,5.13a1,1,0,0,0-.69.28,1,1,0,1,0,.69-.28ZM26,26.35H12.24a1,1,0,1,0,0,1.94H26a1,1,0,0,0,0-1.94Zm21.75-13.5a4,4,0,0,0-3.08-.41,4.1,4.1,0,0,0-2.47,1.9L30,35.41a1,1,0,0,0-.13.37L29,43.45a1,1,0,0,0,.47.95,1.05,1.05,0,0,0,.49.13,1,1,0,0,0,.57-.19l6.22-4.58a1.2,1.2,0,0,0,.26-.29L49.21,18.4A4.07,4.07,0,0,0,47.72,12.85ZM31.19,41.47l.45-4,2.8,1.61Zm4.66-3.81-3.69-2.12,9.77-16.91,3.68,2.12ZM47.53,17.43l-1,1.65L42.9,17l1-1.65a2.11,2.11,0,0,1,1.29-1,2.15,2.15,0,0,1,1.61.21,2.14,2.14,0,0,1,.78,2.91Z"/></svg>