<svg id="Layer_1" data-name="Layer 1" xmlns="http://www.w3.org/2000/svg" viewBox="0 0 50 50"><defs><style>.cls-1{fill:#fff;}</style></defs><g id="Page-1"><g id="_012---Study-Books" data-name="012---Study-Books"><path id="Shape" class="cls-1" d="M11,43.15h2.47a.83.83,0,1,0,0-1.65H11a.83.83,0,1,0,0,1.65Z"/><path id="Shape-2" data-name="Shape" class="cls-1" d="M15.93,42.32a.82.82,0,0,0,.82.83h23.1a.83.83,0,1,0,0-1.65H16.75A.82.82,0,0,0,15.93,42.32Z"/><path id="Shape-3" data-name="Shape" class="cls-1" d="M44,41.5h-.83a.83.83,0,0,0,0,1.65H44a.83.83,0,0,0,0-1.65Z"/><path id="Shape-4" data-name="Shape" class="cls-1" d="M41.5,39.85H44a.83.83,0,0,0,0-1.65H41.5a.83.83,0,0,0,0,1.65Z"/><path id="Shape-5" data-name="Shape" class="cls-1" d="M23.35,39.85H38.2a.83.83,0,1,0,0-1.65H23.35a.83.83,0,0,0,0,1.65Z"/><path id="Shape-6" data-name="Shape" class="cls-1" d="M11,39.85h9.07a.83.83,0,1,0,0-1.65H11a.83.83,0,1,0,0,1.65Z"/><path id="Shape-7" data-name="Shape" class="cls-1" d="M48.1,31.6H9.33A9.07,9.07,0,0,0,.27,41.32a9.25,9.25,0,0,0,9.31,8.43H48.1a1.65,1.65,0,0,0,1.65-1.65V46.45A1.65,1.65,0,0,0,48.1,44.8V36.55a1.65,1.65,0,0,0,1.65-1.65V33.25A1.65,1.65,0,0,0,48.1,31.6ZM46.45,44.8H9.5a4.22,4.22,0,0,1-4.26-3.58,4.12,4.12,0,0,1,4.09-4.67H46.45Zm1.65-9.9H9.33A5.77,5.77,0,0,0,3.6,41.43a5.88,5.88,0,0,0,5.9,5H48.1V48.1H9.58a7.58,7.58,0,0,1-7.66-6.89,7.43,7.43,0,0,1,7.41-8H48.1Z"/><path id="Shape-8" data-name="Shape" class="cls-1" d="M48.65,8.6,25.56.35a1.69,1.69,0,0,0-1.13,0L1.35,8.6a1.65,1.65,0,0,0,0,3.1l11.28,4v6.79c0,3.21,11.1,3.3,12.37,3.3s12.38-.09,12.38-3.3V15.73l2.47-.88v1.9A1.65,1.65,0,0,0,41.5,18.4h1.65a1.65,1.65,0,0,0,1.65-1.65V14.27a2.31,2.31,0,0,0-.27-1.09l4.13-1.48a1.65,1.65,0,0,0,0-3.1ZM35.73,20.71C32.58,19.28,26,19.22,25,19.22s-7.58.06-10.72,1.49V11.87c.49-.63,4.38-1.72,10.72-1.72s10.23,1.09,10.73,1.72ZM25,24.17c-6.1,0-9.94-1-10.66-1.65.72-.64,4.56-1.65,10.66-1.65s9.94,1,10.66,1.65C34.94,23.17,31.11,24.17,25,24.17ZM40.24,13l-2.86,1V11.8c0-3.21-11.11-3.3-12.38-3.3s-12.37.09-12.37,3.3V14L1.9,10.15,25,1.9,41.5,7.79V12A2.47,2.47,0,0,0,40.24,13Zm2.91,3.79H41.5V14.27a.83.83,0,0,1,1.65,0Zm0-4.83V8.38l5,1.77Z"/></g></g></svg>