<svg id="Layer_1" data-name="Layer 1" xmlns="http://www.w3.org/2000/svg" viewBox="0 0 50 50"><defs><style>.cls-1{fill:#003a5d;}</style></defs><path class="cls-1" d="M47.39,23.44a1,1,0,1,1,1-.78,1,1,0,0,1-1,.78Z"/><path class="cls-1" d="M47.39,19.08a1,1,0,0,0,1-1V11.69a1,1,0,0,0-.5-.85V9.62a4,4,0,0,0-8,0v1.22a1,1,0,0,0-.49.85V32.25a1,1,0,0,0,.49.84V45a1,1,0,0,0,.47.83l2.56,1.56v1.37a1,1,0,1,0,1.93,0V47.41l2.56-1.56a1,1,0,0,0,.46-.83V33.09a1,1,0,0,0,.5-.84V26.86a1,1,0,1,0-1.93,0v4.42H41.32V12.65h5.11v5.47a1,1,0,0,0,1,1ZM45.93,33.21V44.48l-2.06,1.25-2-1.25V33.21ZM41.82,10.72V9.62a2.06,2.06,0,1,1,4.11,0v1.1Z"/><path class="cls-1" d="M12.42,28.62A1,1,0,0,1,12,28.5L11,28a1,1,0,1,1,.93-1.69l.23.12,1.18-1.66a1,1,0,0,1,1.35-.23,1,1,0,0,1,.23,1.34l-1.68,2.37a.94.94,0,0,1-.79.41Z"/><path class="cls-1" d="M27.45,27.44H17.83a1,1,0,0,1,0-1.94h9.62a1,1,0,0,1,0,1.94Z"/><path class="cls-1" d="M12.42,34.14A1,1,0,0,1,12,34l-1-.54a1,1,0,1,1,.93-1.7l.23.13,1.18-1.67a1,1,0,0,1,1.58,1.12l-1.68,2.37A.94.94,0,0,1,12.42,34.14Z"/><path class="cls-1" d="M27.45,33H17.83a1,1,0,0,1,0-1.93h9.62a1,1,0,0,1,0,1.93Z"/><path class="cls-1" d="M12.42,39.66a1,1,0,0,1-.46-.12L11,39a1,1,0,1,1,.93-1.69l.23.13,1.18-1.67a1,1,0,1,1,1.58,1.12l-1.68,2.37a1,1,0,0,1-.79.41Z"/><path class="cls-1" d="M27.45,38.47H17.83a1,1,0,0,1,0-1.93h9.62a1,1,0,0,1,0,1.93Z"/><path class="cls-1" d="M21.5,21.2a1.28,1.28,0,0,1-.57-.13l-1.49-.69L18,21.07A1.35,1.35,0,0,1,16,19.69l.2-1.64-1.12-1.2a1.35,1.35,0,0,1-.29-1.33,1.33,1.33,0,0,1,1-.91l1.61-.32.8-1.44a1.37,1.37,0,0,1,1.18-.69,1.34,1.34,0,0,1,1.17.69l.81,1.44,1.61.32a1.33,1.33,0,0,1,1,.91,1.35,1.35,0,0,1-.29,1.33l-1.12,1.2.19,1.64A1.35,1.35,0,0,1,21.5,21.2Zm-2.06-2.85a1,1,0,0,1,.41.09l.94.43-.13-1a1,1,0,0,1,.25-.77l.71-.76-1-.2a1,1,0,0,1-.66-.48l-.5-.91-.5.91a1,1,0,0,1-.66.48l-1,.2.7.76a1,1,0,0,1,.26.77l-.13,1,.94-.43a1,1,0,0,1,.41-.09Z"/><path class="cls-1" d="M33.83,3.18H25.19v-2a1,1,0,0,0-1-1H14.66a1,1,0,0,0-1,1v2H5.05A3.41,3.41,0,0,0,1.64,6.59V46.34a3.41,3.41,0,0,0,3.41,3.41H33.83a3.41,3.41,0,0,0,3.41-3.41V6.59A3.41,3.41,0,0,0,33.83,3.18ZM14.66,5.11a1,1,0,0,0,1-1v-2h7.62v2a1,1,0,0,0,1,1h4.35V7.9H10.31V5.11ZM30.92,9.83V43.42H8V9.83ZM35.3,46.34a1.48,1.48,0,0,1-1.47,1.48H5.05a1.49,1.49,0,0,1-1.48-1.48V6.59A1.49,1.49,0,0,1,5.05,5.11H8.37V7.9H7a1,1,0,0,0-1,1V44.39a1,1,0,0,0,1,1h24.9a1,1,0,0,0,1-1V8.86a1,1,0,0,0-1-1H30.5V5.11h3.33A1.48,1.48,0,0,1,35.3,6.59V46.34Z"/></svg>