<svg id="Layer_1" data-name="Layer 1" xmlns="http://www.w3.org/2000/svg" viewBox="0 0 50 50"><defs><style>.cls-1{fill:#fff;}</style></defs><path class="cls-1" d="M45.76,11.43H45V.25H5V11.43h-.8a4,4,0,0,0-4,4V41a4,4,0,0,0,4,4H14.62v3.19H11.43v1.6H38.57v-1.6H35.38V45H45.76a4,4,0,0,0,4-4V15.42A4,4,0,0,0,45.76,11.43ZM6.64,8.23H43.36V33.78H6.64ZM43.36,1.85V6.64H6.64V1.85ZM4.24,13H5V35.38H45V13h.8a2.4,2.4,0,0,1,2.39,2.4V37H1.85V15.42A2.4,2.4,0,0,1,4.24,13ZM33.78,48.15H16.22V45H33.78Zm12-4.79H4.24A2.39,2.39,0,0,1,1.85,41v-2.4h46.3V41A2.39,2.39,0,0,1,45.76,43.36Z"/><path class="cls-1" d="M5,40.17h1.6v1.6H5Z"/><path class="cls-1" d="M8.23,40.17h1.6v1.6H8.23Z"/><path class="cls-1" d="M11.43,40.17H13v1.6H11.43Z"/><path class="cls-1" d="M8.23,3.44h1.6V5H8.23Z"/><path class="cls-1" d="M11.43,3.44H13V5H11.43Z"/><path class="cls-1" d="M14.62,3.44h1.6V5h-1.6Z"/><path class="cls-1" d="M21.31,19.58l-2.7-.77V18.6a4,4,0,0,0,1.6-3.18V14a4.1,4.1,0,0,0-3.64-4.14,4,4,0,0,0-4.34,4v1.6a4,4,0,0,0,1.59,3.18v.21l-2.69.77a4,4,0,0,0-2.9,3.84V25.8h16V23.42A4,4,0,0,0,21.31,19.58ZM22.6,24.2H9.83v-.78a2.42,2.42,0,0,1,1.74-2.31L15.42,20v-2.3l-.4-.23a2.38,2.38,0,0,1-1.2-2.06v-1.6a2.4,2.4,0,0,1,.78-1.76,2.36,2.36,0,0,1,1.83-.62A2.49,2.49,0,0,1,18.61,14v1.43a2.38,2.38,0,0,1-1.2,2.06l-.39.23V20l3.85,1.1a2.41,2.41,0,0,1,1.73,2.31Z"/><path class="cls-1" d="M8.23,27.4h16V29h-16Z"/><path class="cls-1" d="M8.23,30.59h16v1.6h-16Z"/><path class="cls-1" d="M25.8,32.19h16V19.41h-16ZM27.4,21H40.17v9.58H27.4Z"/><path class="cls-1" d="M25.8,9.83h16v1.6h-16Z"/><path class="cls-1" d="M25.8,13h16v1.6h-16Z"/><path class="cls-1" d="M25.8,16.22H37v1.59H25.8Z"/></svg>