<svg id="Layer_1" data-name="Layer 1" xmlns="http://www.w3.org/2000/svg" viewBox="0 0 50 50"><defs><style>.cls-1{fill:#003a5d;}</style></defs><path class="cls-1" d="M37.56,36.07a1,1,0,0,1-.73-.3L32.45,31.4A1,1,0,1,0,31,32.85a1,1,0,0,1,0,1.46,1,1,0,0,1-1.45,0,3.09,3.09,0,1,1,4.37-4.37l4.38,4.37a1,1,0,0,1-.73,1.76Z"/><path class="cls-1" d="M34.64,33.16a1,1,0,0,1-.73-.31,3.1,3.1,0,0,1,0-4.37,3.17,3.17,0,0,1,4.38,0L41.2,31.4a1,1,0,0,1,0,1.45,1,1,0,0,1-1.46,0l-2.91-2.91a1,1,0,1,0-1.46,1.46,1,1,0,0,1,0,1.45,1,1,0,0,1-.73.31Z"/><path class="cls-1" d="M37.94,49.75a9.22,9.22,0,0,1-2.27-.28l-7.19-1.84a1,1,0,0,1-.64-.48,3.7,3.7,0,0,1,.6-4.45A4,4,0,0,1,31,41.65l-8.8-8.8a3.1,3.1,0,0,1,0-4.37,3.17,3.17,0,0,1,4.38,0l8.75,8.75a1,1,0,0,1-1.46,1.46l-8.75-8.75a1.06,1.06,0,0,0-1.46,0,1,1,0,0,0,0,1.45L34.64,42.33a1,1,0,0,1-1,1.71c-.88-.28-2.94-.64-3.69.12a1.56,1.56,0,0,0-.42,1.6l6.7,1.71a7.24,7.24,0,0,0,6.88-1.89l2.52-2.52a7.24,7.24,0,0,0,0-10.21L41.2,28.48a1.06,1.06,0,0,0-1.46,0,1,1,0,0,0-.3.73,1,1,0,0,0,.3.73,1,1,0,1,1-1.46,1.45,3.08,3.08,0,0,1,0-4.37,3.17,3.17,0,0,1,4.38,0L47,31.39a9.29,9.29,0,0,1,0,13.13L44.52,47a9.29,9.29,0,0,1-6.58,2.72Z"/><path class="cls-1" d="M21.91,43.57H5.41A5.17,5.17,0,0,1,.25,38.41V11.59A5.16,5.16,0,0,1,5.41,6.44H9.53a1,1,0,1,1,0,2.06H5.41a3.09,3.09,0,0,0-3.09,3.09V38.41A3.09,3.09,0,0,0,5.41,41.5h16.5a1,1,0,0,1,0,2.07Z"/><path class="cls-1" d="M24,12.63H11.6a3.1,3.1,0,0,1-3.1-3.1V5.41a1,1,0,0,1,1-1h3.2a5.16,5.16,0,0,1,10.11,0H26a1,1,0,0,1,1,1V9.53A3.1,3.1,0,0,1,24,12.63ZM10.57,6.44V9.53a1,1,0,0,0,1,1H24a1,1,0,0,0,1-1V6.44H21.91a1,1,0,0,1-1-1,3.1,3.1,0,1,0-6.19,0,1,1,0,0,1-1,1Z"/><path class="cls-1" d="M34.29,25a1,1,0,0,1-1-1V11.59a3.1,3.1,0,0,0-3.1-3.09H26a1,1,0,1,1,0-2.06h4.12a5.16,5.16,0,0,1,5.16,5.15V24A1,1,0,0,1,34.29,25Z"/><path class="cls-1" d="M28.1,18.81H7.47a1,1,0,0,1,0-2.06H28.1a1,1,0,0,1,0,2.06Z"/><path class="cls-1" d="M28.1,25H7.47a1,1,0,0,1,0-2.06H28.1a1,1,0,0,1,0,2.06Z"/><path class="cls-1" d="M17.79,31.19H7.47a1,1,0,1,1,0-2.06H17.79a1,1,0,0,1,0,2.06Z"/></svg>