<svg id="Layer_1" data-name="Layer 1" xmlns="http://www.w3.org/2000/svg" viewBox="0 0 148.74 39.5"><defs><style>.cls-1{fill:#1f3149;}.cls-2{fill:#bc2f2a;}.cls-3{fill:none;}</style></defs><path class="cls-1" d="M149.37,18.21a16.62,16.62,0,0,1-5.71,12.69,20,20,0,0,1-4.92,3.35H120.1V22.83A9.71,9.71,0,0,1,121.42,18a10.59,10.59,0,0,0-1-.76,3.66,3.66,0,0,1-1-2.55,3.52,3.52,0,0,1,1.07-2.53,11.24,11.24,0,0,1,2.11,2.19,17.26,17.26,0,0,0-.13,2.18,9.75,9.75,0,0,1,7.41-3.41V27.18a9.82,9.82,0,0,0,6.9-2.62,8.48,8.48,0,0,0,0-12.7,9.82,9.82,0,0,0-6.9-2.63H120.1v-9h9.76a19.64,19.64,0,0,1,13.8,5.26A16.63,16.63,0,0,1,149.37,18.21Z" transform="translate(-0.63 -0.25)"/><rect class="cls-1" x="89.16" width="26.51" height="8.98"/><path class="cls-2" d="M28.4,25.9a9.49,9.49,0,0,1-3.26,7.26,12.94,12.94,0,0,1-1.38,1.09H2.22A8.89,8.89,0,0,1,4.5,30L3.1,28.67a3.18,3.18,0,0,1-.21-4.51l1.93,1.77a3.2,3.2,0,0,1,1,2.88A8.91,8.91,0,0,1,11,27.18h6.27a1.38,1.38,0,0,0,1-.37,1.19,1.19,0,0,0,.41-.91,1.16,1.16,0,0,0-.37-.87l-5.12-4.52Q3.39,12.3,3.4,2.81V.25h9.76V2.81q0,5.4,5.29,10l6.75,5.87A9.5,9.5,0,0,1,28.4,25.9Z" transform="translate(-0.63 -0.25)"/><path class="cls-2" d="M56.85,11.79A11.36,11.36,0,0,1,53.59,20a10.56,10.56,0,0,1-7.89,3.39H40.12V34.25H30.36l0-20.68,14,.79a2.82,2.82,0,0,0,2-.76,2.4,2.4,0,0,0,0-3.61,2.77,2.77,0,0,0-2-.76H30.37v-9H45.7a10.59,10.59,0,0,1,7.89,3.38A11.36,11.36,0,0,1,56.85,11.79Z" transform="translate(-0.63 -0.25)"/><polygon class="cls-1" points="98.91 21.8 98.91 26.93 115.66 26.93 115.66 34 89.16 34 89.16 13.76 115.66 12.82 115.66 21.8 98.91 21.8"/><polygon class="cls-2" points="68.25 21.8 68.25 26.93 85 26.93 85 34 58.49 34 58.49 12.82 85 13.88 85 21.8 68.25 21.8"/><rect class="cls-2" x="58.5" width="26.51" height="8.98"/><path class="cls-3" d="M149.37,18.21v16H138.74a20,20,0,0,0,4.92-3.35A16.62,16.62,0,0,0,149.37,18.21Z" transform="translate(-0.63 -0.25)"/><path class="cls-1" d="M.63,39l.27-.4a2.65,2.65,0,0,0,.39.23.94.94,0,0,0,.43.1.66.66,0,0,0,.21,0,.4.4,0,0,0,.16-.08.28.28,0,0,0,.09-.1.35.35,0,0,0,0-.13.2.2,0,0,0,0-.13L2,38.37l-.19-.06-.22,0-.18,0-.21-.06L1,38.09A.8.8,0,0,1,.84,38a.53.53,0,0,1-.13-.2.54.54,0,0,1-.06-.27.7.7,0,0,1,.1-.37A.57.57,0,0,1,1,36.89a.84.84,0,0,1,.31-.12,1.37,1.37,0,0,1,.34,0l.29,0,.23.06.21.1c.07.05.15.09.22.15l-.27.39a1.82,1.82,0,0,0-.35-.2,1,1,0,0,0-.35-.06H1.46l-.15,0-.12.09a.2.2,0,0,0,0,.13.15.15,0,0,0,.05.13.42.42,0,0,0,.14.09l.2.06.2,0,.17,0,.21.05a1,1,0,0,1,.21.09.8.8,0,0,1,.19.13.71.71,0,0,1,.18.5.71.71,0,0,1-.07.34.6.6,0,0,1-.2.25.92.92,0,0,1-.3.14,1.29,1.29,0,0,1-.4.05,1.83,1.83,0,0,1-.35,0,1.15,1.15,0,0,1-.28-.08,1.34,1.34,0,0,1-.24-.12Z" transform="translate(-0.63 -0.25)"/><path class="cls-1" d="M5.64,38.7a1.21,1.21,0,0,1-.21.28,1.09,1.09,0,0,1-.27.21,1.22,1.22,0,0,1-.33.14,1,1,0,0,1-.35.05,1.27,1.27,0,0,1-.52-.1,1.42,1.42,0,0,1-.71-.71,1.27,1.27,0,0,1-.1-.52,1.25,1.25,0,0,1,.1-.51A1.42,1.42,0,0,1,4,36.83a1.27,1.27,0,0,1,.52-.1,1,1,0,0,1,.35.05,1.62,1.62,0,0,1,.33.13,1.44,1.44,0,0,1,.27.22,1.39,1.39,0,0,1,.21.27l-.46.19A.7.7,0,0,0,5,37.43l-.16-.13a1.63,1.63,0,0,0-.19-.09.76.76,0,0,0-.21,0,.88.88,0,0,0-.33.07,1.05,1.05,0,0,0-.27.2.83.83,0,0,0-.17.27.78.78,0,0,0-.07.33.8.8,0,0,0,.07.34,1,1,0,0,0,.17.27,1.05,1.05,0,0,0,.27.2.88.88,0,0,0,.33.07.76.76,0,0,0,.21,0,1.63,1.63,0,0,0,.19-.09L5,38.68a1,1,0,0,0,.14-.16Z" transform="translate(-0.63 -0.25)"/><path class="cls-1" d="M8.43,36.77v2.56H7.94v-1H6.68v1H6.19V36.77h.49v1.11H7.94V36.77Z" transform="translate(-0.63 -0.25)"/><path class="cls-1" d="M10.36,39.38a1.25,1.25,0,0,1-.51-.1,1.42,1.42,0,0,1-.71-.71,1.27,1.27,0,0,1-.1-.52,1.34,1.34,0,0,1,.1-.52,1.37,1.37,0,0,1,.29-.42,1.34,1.34,0,0,1,.42-.28,1.26,1.26,0,0,1,1,0,1.34,1.34,0,0,1,.42.28,1.37,1.37,0,0,1,.29.42,1.34,1.34,0,0,1,.1.52,1.27,1.27,0,0,1-.1.52,1.42,1.42,0,0,1-.71.71A1.27,1.27,0,0,1,10.36,39.38Zm0-2.2a.71.71,0,0,0-.32.07,1,1,0,0,0-.27.19,1.12,1.12,0,0,0-.18.28,1,1,0,0,0-.06.33.88.88,0,0,0,.06.33,1.12,1.12,0,0,0,.18.28,1.05,1.05,0,0,0,.27.2.79.79,0,0,0,.65,0,1.05,1.05,0,0,0,.27-.2,1.12,1.12,0,0,0,.18-.28.88.88,0,0,0,.06-.33,1,1,0,0,0-.06-.33,1.12,1.12,0,0,0-.18-.28,1,1,0,0,0-.27-.19A.72.72,0,0,0,10.36,37.18Z" transform="translate(-0.63 -0.25)"/><path class="cls-1" d="M13.5,39.38a1.25,1.25,0,0,1-.51-.1,1.42,1.42,0,0,1-.43-.29,1.34,1.34,0,0,1-.28-.42,1.27,1.27,0,0,1-.11-.52,1.37,1.37,0,0,1,.39-.94,1.39,1.39,0,0,1,.43-.28,1.26,1.26,0,0,1,1,0,1.34,1.34,0,0,1,.42.28,1.37,1.37,0,0,1,.29.42,1.34,1.34,0,0,1,.1.52,1.27,1.27,0,0,1-.1.52,1.42,1.42,0,0,1-.71.71A1.27,1.27,0,0,1,13.5,39.38Zm0-2.2a.71.71,0,0,0-.32.07.88.88,0,0,0-.27.19.75.75,0,0,0-.18.28,1,1,0,0,0-.07.33.88.88,0,0,0,.07.33.75.75,0,0,0,.18.28.9.9,0,0,0,.27.2.79.79,0,0,0,.65,0,.86.86,0,0,0,.26-.2.92.92,0,0,0,.19-.28.88.88,0,0,0,.06-.33,1,1,0,0,0-.06-.33.92.92,0,0,0-.19-.28.83.83,0,0,0-.26-.19A.72.72,0,0,0,13.5,37.18Z" transform="translate(-0.63 -0.25)"/><path class="cls-1" d="M17.29,38.9v.43H15.44V36.77h.49V38.9Z" transform="translate(-0.63 -0.25)"/><path class="cls-1" d="M20.34,39.38a1.25,1.25,0,0,1-.51-.1A1.3,1.3,0,0,1,19.4,39a1.34,1.34,0,0,1-.28-.42,1.27,1.27,0,0,1-.11-.52,1.37,1.37,0,0,1,.39-.94,1.28,1.28,0,0,1,.43-.28,1.26,1.26,0,0,1,1,0,1.34,1.34,0,0,1,.42.28,1.37,1.37,0,0,1,.29.42,1.34,1.34,0,0,1,.1.52,1.27,1.27,0,0,1-.1.52,1.42,1.42,0,0,1-.71.71A1.27,1.27,0,0,1,20.34,39.38Zm0-2.2a.71.71,0,0,0-.32.07.88.88,0,0,0-.27.19.75.75,0,0,0-.18.28,1,1,0,0,0-.07.33.88.88,0,0,0,.07.33.75.75,0,0,0,.18.28.9.9,0,0,0,.27.2.79.79,0,0,0,.65,0,1.05,1.05,0,0,0,.27-.2.88.88,0,0,0,.17-.28.72.72,0,0,0,.07-.33.78.78,0,0,0-.07-.33.88.88,0,0,0-.17-.28,1,1,0,0,0-.27-.19A.72.72,0,0,0,20.34,37.18Z" transform="translate(-0.63 -0.25)"/><path class="cls-1" d="M22.77,37.2v.64H24v.45H22.77v1h-.49V36.77h1.89v.43Z" transform="translate(-0.63 -0.25)"/><path class="cls-1" d="M27.25,36.77a.86.86,0,0,1,.36.07.84.84,0,0,1,.29.2.92.92,0,0,1,.19.28.89.89,0,0,1,.07.36,1,1,0,0,1-.06.35.75.75,0,0,1-.18.28.89.89,0,0,1-.31.19,1.2,1.2,0,0,1-.44.07H26.6v.76h-.49V36.77Zm0,1.36a.36.36,0,0,0,.19,0,.27.27,0,0,0,.13-.1.39.39,0,0,0,.08-.14.5.5,0,0,0,0-.17.47.47,0,0,0,0-.17.51.51,0,0,0-.09-.16.57.57,0,0,0-.35-.15h-.6v.93Z" transform="translate(-0.63 -0.25)"/><path class="cls-1" d="M29.15,39.33h-.49V36.77h1.17a1,1,0,0,1,.36.06.92.92,0,0,1,.28.19,1,1,0,0,1,.18.28,1,1,0,0,1,.06.35.93.93,0,0,1-.14.51.85.85,0,0,1-.39.31l.64.86h-.59l-.3-.4-.29-.41h-.49Zm0-1.25h.68l.13,0a.57.57,0,0,0,.13-.08.34.34,0,0,0,.09-.14.38.38,0,0,0,0-.19.62.62,0,0,0,0-.13.47.47,0,0,0-.06-.15.68.68,0,0,0-.12-.12.39.39,0,0,0-.2,0h-.68Z" transform="translate(-0.63 -0.25)"/><path class="cls-1" d="M32.56,39.38a1.27,1.27,0,0,1-.52-.1,1.42,1.42,0,0,1-.71-.71,1.27,1.27,0,0,1-.1-.52,1.34,1.34,0,0,1,.1-.52,1.37,1.37,0,0,1,.29-.42,1.34,1.34,0,0,1,.42-.28,1.36,1.36,0,0,1,1.46.28,1.37,1.37,0,0,1,.39.94,1.27,1.27,0,0,1-.11.52,1.34,1.34,0,0,1-.28.42,1.3,1.3,0,0,1-.43.29A1.25,1.25,0,0,1,32.56,39.38Zm0-2.2a.72.72,0,0,0-.33.07.83.83,0,0,0-.26.19.75.75,0,0,0-.18.28.78.78,0,0,0-.07.33.72.72,0,0,0,.07.33.75.75,0,0,0,.18.28.86.86,0,0,0,.26.2.88.88,0,0,0,.33.07,1,1,0,0,0,.33-.07.86.86,0,0,0,.26-.2.75.75,0,0,0,.18-.28.72.72,0,0,0,.07-.33.78.78,0,0,0-.07-.33.75.75,0,0,0-.18-.28.83.83,0,0,0-.26-.19A.78.78,0,0,0,32.56,37.18Z" transform="translate(-0.63 -0.25)"/><path class="cls-1" d="M35,37.2v.64h1.23v.45H35v1H34.5V36.77h1.88v.43Z" transform="translate(-0.63 -0.25)"/><path class="cls-1" d="M37.45,37.2v.64h1.24v.45H37.45v.6h1.39v.44H37V36.77h1.88v.43Z" transform="translate(-0.63 -0.25)"/><path class="cls-1" d="M39.42,39l.27-.4a2.65,2.65,0,0,0,.39.23.94.94,0,0,0,.43.1.66.66,0,0,0,.21,0,.4.4,0,0,0,.16-.08.28.28,0,0,0,.09-.1.35.35,0,0,0,0-.13.2.2,0,0,0,0-.13l-.13-.09-.18-.06-.23,0-.18,0L40,38.18l-.21-.09a.8.8,0,0,1-.19-.13.69.69,0,0,1-.13-.2.54.54,0,0,1,0-.27.7.7,0,0,1,.09-.37.57.57,0,0,1,.23-.23.84.84,0,0,1,.31-.12,1.37,1.37,0,0,1,.34,0l.29,0,.23.06.21.1.23.15-.28.39a1.82,1.82,0,0,0-.35-.2,1,1,0,0,0-.35-.06h-.15l-.15,0-.12.09a.2.2,0,0,0,0,.13.15.15,0,0,0,.05.13.38.38,0,0,0,.15.09l.19.06.2,0,.17,0,.21.05a1,1,0,0,1,.21.09.64.64,0,0,1,.19.13.5.5,0,0,1,.13.21.63.63,0,0,1,.05.29.71.71,0,0,1-.07.34.6.6,0,0,1-.2.25.83.83,0,0,1-.3.14,1.25,1.25,0,0,1-.4.05,1.83,1.83,0,0,1-.35,0,1.15,1.15,0,0,1-.28-.08,1.34,1.34,0,0,1-.24-.12Z" transform="translate(-0.63 -0.25)"/><path class="cls-1" d="M42,39l.26-.4a2.3,2.3,0,0,0,.4.23.94.94,0,0,0,.43.1.66.66,0,0,0,.21,0,.36.36,0,0,0,.15-.08.24.24,0,0,0,.1-.1.35.35,0,0,0,0-.13.17.17,0,0,0-.05-.13l-.12-.09-.19-.06-.22,0-.18,0-.21-.06-.21-.09a.64.64,0,0,1-.19-.13.72.72,0,0,1-.14-.2.68.68,0,0,1,0-.27.7.7,0,0,1,.09-.37.59.59,0,0,1,.24-.23.84.84,0,0,1,.31-.12,1.37,1.37,0,0,1,.34,0l.28,0,.24.06.21.1.22.15-.27.39a1.82,1.82,0,0,0-.35-.2,1,1,0,0,0-.35-.06h-.15l-.15,0-.12.09a.21.21,0,0,0,0,.13.16.16,0,0,0,.06.13.34.34,0,0,0,.14.09l.19.06.21,0,.17,0,.21.05a1,1,0,0,1,.21.09.8.8,0,0,1,.19.13.62.62,0,0,1,.13.21.79.79,0,0,1,0,.29.71.71,0,0,1-.07.34.69.69,0,0,1-.2.25,1,1,0,0,1-.31.14,1.23,1.23,0,0,1-.39.05,1.75,1.75,0,0,1-.35,0,1,1,0,0,1-.28-.08.9.9,0,0,1-.24-.12Z" transform="translate(-0.63 -0.25)"/><path class="cls-1" d="M45.2,39.33h-.49V36.77h.49Z" transform="translate(-0.63 -0.25)"/><path class="cls-1" d="M47.2,39.38a1.34,1.34,0,0,1-.52-.1,1.37,1.37,0,0,1-.42-.29,1.34,1.34,0,0,1-.28-.42,1.27,1.27,0,0,1-.11-.52,1.34,1.34,0,0,1,1.33-1.33,1.31,1.31,0,0,1,.52.11,1.34,1.34,0,0,1,.42.28,1.37,1.37,0,0,1,.29.42,1.34,1.34,0,0,1,.1.52,1.27,1.27,0,0,1-.1.52,1.42,1.42,0,0,1-.71.71A1.3,1.3,0,0,1,47.2,39.38Zm0-2.2a.75.75,0,0,0-.33.07.83.83,0,0,0-.26.19.75.75,0,0,0-.18.28.78.78,0,0,0-.07.33.72.72,0,0,0,.07.33.75.75,0,0,0,.18.28.86.86,0,0,0,.26.2.93.93,0,0,0,.33.07.88.88,0,0,0,.33-.07.86.86,0,0,0,.26-.2.75.75,0,0,0,.18-.28.72.72,0,0,0,.07-.33.78.78,0,0,0-.07-.33.75.75,0,0,0-.18-.28.83.83,0,0,0-.26-.19A.72.72,0,0,0,47.2,37.18Z" transform="translate(-0.63 -0.25)"/><path class="cls-1" d="M51.31,39.33l-1.68-1.52v1.52h-.49V36.77h0l1.69,1.55V36.77h.49v2.56Z" transform="translate(-0.63 -0.25)"/><path class="cls-1" d="M51.84,39.33l1.31-2.56h.05l1.31,2.56H54l-.2-.4H52.57l-.19.4Zm1-.83h.73l-.36-.77Z" transform="translate(-0.63 -0.25)"/><path class="cls-1" d="M56.75,38.9v.43H54.9V36.77h.49V38.9Z" transform="translate(-0.63 -0.25)"/><path class="cls-1" d="M57.63,39.06a.74.74,0,0,1,0,.21.52.52,0,0,1-.07.21.55.55,0,0,1-.14.17.62.62,0,0,1-.22.1l-.06-.13a.4.4,0,0,0,.17-.1.33.33,0,0,0,.07-.16.24.24,0,0,1-.18-.07.28.28,0,0,1-.09-.17.26.26,0,0,1,.25-.27.22.22,0,0,1,.17,0A.29.29,0,0,1,57.63,39.06Z" transform="translate(-0.63 -0.25)"/><path class="cls-1" d="M60.08,37.2v.64h1.24v.45H60.08v.6h1.39v.44H59.59V36.77h1.88v.43Z" transform="translate(-0.63 -0.25)"/><path class="cls-1" d="M62.91,38.07l-1-1.3h.61l.67.92.66-.92h.61l-1,1.3.95,1.26h-.61l-.64-.89-.65.89H62Z" transform="translate(-0.63 -0.25)"/><path class="cls-1" d="M65.46,37.2v.64H66.7v.45H65.46v.6h1.4v.44H65V36.77h1.89v.43Z" transform="translate(-0.63 -0.25)"/><path class="cls-1" d="M69.81,38.7a1,1,0,0,1-.2.28,1.31,1.31,0,0,1-.27.21,1.22,1.22,0,0,1-.33.14,1,1,0,0,1-.36.05,1.25,1.25,0,0,1-.51-.1,1.42,1.42,0,0,1-.71-.71,1.27,1.27,0,0,1-.1-.52,1.25,1.25,0,0,1,.1-.51,1.42,1.42,0,0,1,.71-.71,1.25,1.25,0,0,1,.51-.1,1,1,0,0,1,.36.05,1.62,1.62,0,0,1,.33.13,1.86,1.86,0,0,1,.27.22,1.05,1.05,0,0,1,.2.27l-.46.19a.65.65,0,0,0-.13-.16l-.16-.13a1.21,1.21,0,0,0-.2-.09.66.66,0,0,0-.21,0,.88.88,0,0,0-.32.07,1,1,0,0,0-.45.47,1,1,0,0,0-.06.33,1,1,0,0,0,.06.34,1.27,1.27,0,0,0,.18.27,1.05,1.05,0,0,0,.27.2.88.88,0,0,0,.32.07.66.66,0,0,0,.21,0,1.21,1.21,0,0,0,.2-.09l.16-.13a.91.91,0,0,0,.13-.16Z" transform="translate(-0.63 -0.25)"/><path class="cls-1" d="M71.47,39.38A1.34,1.34,0,0,1,71,39.3a.87.87,0,0,1-.34-.22.8.8,0,0,1-.22-.34,1,1,0,0,1-.08-.44V36.77h.49V38.3a.76.76,0,0,0,.06.32.43.43,0,0,0,.16.19.49.49,0,0,0,.2.11l.19,0,.19,0a.56.56,0,0,0,.2-.11.49.49,0,0,0,.15-.19.76.76,0,0,0,.07-.32V36.77h.49V38.3a1.23,1.23,0,0,1-.08.44.95.95,0,0,1-.57.56A1.29,1.29,0,0,1,71.47,39.38Z" transform="translate(-0.63 -0.25)"/><path class="cls-1" d="M75,37.2h-.73v2.13h-.49V37.2H73v-.43h2Z" transform="translate(-0.63 -0.25)"/><path class="cls-1" d="M76.07,39.33h-.49V36.77h.49Z" transform="translate(-0.63 -0.25)"/><path class="cls-1" d="M79.11,36.77l-1.22,2.56h0l-1.22-2.56h.54l.69,1.49.69-1.49Z" transform="translate(-0.63 -0.25)"/><path class="cls-1" d="M80.07,37.2v.64h1.24v.45H80.07v.6h1.4v.44H79.58V36.77h1.89v.43Z" transform="translate(-0.63 -0.25)"/><path class="cls-1" d="M84,37.2v.64h1.24v.45H84v.6h1.4v.44H83.52V36.77h1.89v.43Z" transform="translate(-0.63 -0.25)"/><path class="cls-1" d="M87.1,39.33h-1V36.77h1a1.32,1.32,0,0,1,.9.32,1.11,1.11,0,0,1,.28.42,1.33,1.33,0,0,1,.1.54,1.38,1.38,0,0,1-.1.55A1.07,1.07,0,0,1,88,39a1.1,1.1,0,0,1-.4.24A1.38,1.38,0,0,1,87.1,39.33Zm-.52-.43h.52a1.24,1.24,0,0,0,.27,0,.53.53,0,0,0,.26-.13.72.72,0,0,0,.19-.25,1.31,1.31,0,0,0,.07-.44,1.29,1.29,0,0,0-.07-.43.88.88,0,0,0-.19-.26.68.68,0,0,0-.26-.12,1.24,1.24,0,0,0-.27,0h-.52Z" transform="translate(-0.63 -0.25)"/><path class="cls-1" d="M90.11,39.38a1.33,1.33,0,0,1-.45-.08,1,1,0,0,1-.35-.22.91.91,0,0,1-.22-.34A1.23,1.23,0,0,1,89,38.3V36.77h.49V38.3a.63.63,0,0,0,.07.32.49.49,0,0,0,.15.19.56.56,0,0,0,.2.11l.19,0,.19,0a.56.56,0,0,0,.2-.11.51.51,0,0,0,.16-.19.76.76,0,0,0,.06-.32V36.77h.49V38.3a1.23,1.23,0,0,1-.07.44.93.93,0,0,1-.23.34.87.87,0,0,1-.34.22A1.34,1.34,0,0,1,90.11,39.38Z" transform="translate(-0.63 -0.25)"/><path class="cls-1" d="M94.29,38.7a1,1,0,0,1-.2.28,1.09,1.09,0,0,1-.27.21,1.22,1.22,0,0,1-.33.14,1,1,0,0,1-.36.05,1.25,1.25,0,0,1-.51-.1,1.42,1.42,0,0,1-.71-.71,1.27,1.27,0,0,1-.1-.52,1.25,1.25,0,0,1,.1-.51,1.42,1.42,0,0,1,.71-.71,1.25,1.25,0,0,1,.51-.1,1,1,0,0,1,.36.05,1.62,1.62,0,0,1,.33.13,1.44,1.44,0,0,1,.27.22,1.05,1.05,0,0,1,.2.27l-.45.19a1.07,1.07,0,0,0-.14-.16l-.16-.13a1.21,1.21,0,0,0-.2-.09.66.66,0,0,0-.21,0,.88.88,0,0,0-.32.07,1,1,0,0,0-.45.47,1,1,0,0,0-.06.33,1,1,0,0,0,.06.34,1.27,1.27,0,0,0,.18.27,1.05,1.05,0,0,0,.27.2.88.88,0,0,0,.32.07.66.66,0,0,0,.21,0,1.21,1.21,0,0,0,.2-.09l.16-.13.14-.16Z" transform="translate(-0.63 -0.25)"/><path class="cls-1" d="M94.48,39.33l1.31-2.56h0l1.31,2.56h-.53l-.2-.4H95.21l-.2.4Zm1-.83h.73l-.37-.77Z" transform="translate(-0.63 -0.25)"/><path class="cls-1" d="M99,37.2h-.73v2.13h-.49V37.2H97v-.43h2Z" transform="translate(-0.63 -0.25)"/><path class="cls-1" d="M100,39.33h-.49V36.77H100Z" transform="translate(-0.63 -0.25)"/><path class="cls-1" d="M102.05,39.38a1.3,1.3,0,0,1-.52-.1,1.37,1.37,0,0,1-.42-.29,1.34,1.34,0,0,1-.28-.42,1.27,1.27,0,0,1-.11-.52,1.32,1.32,0,0,1,.81-1.22,1.31,1.31,0,0,1,.52-.11,1.34,1.34,0,0,1,1.33,1.33,1.27,1.27,0,0,1-.11.52A1.34,1.34,0,0,1,103,39a1.37,1.37,0,0,1-.42.29A1.34,1.34,0,0,1,102.05,39.38Zm0-2.2a.72.72,0,0,0-.33.07.83.83,0,0,0-.26.19.75.75,0,0,0-.18.28.78.78,0,0,0-.07.33.72.72,0,0,0,.07.33.75.75,0,0,0,.18.28.86.86,0,0,0,.26.2.81.81,0,0,0,.66,0,.86.86,0,0,0,.26-.2.75.75,0,0,0,.18-.28.72.72,0,0,0,.07-.33.78.78,0,0,0-.07-.33.75.75,0,0,0-.18-.28.83.83,0,0,0-.26-.19A.72.72,0,0,0,102.05,37.18Z" transform="translate(-0.63 -0.25)"/><path class="cls-1" d="M106.16,39.33l-1.68-1.52v1.52H104V36.77H104l1.69,1.55V36.77h.49v2.56Z" transform="translate(-0.63 -0.25)"/><path class="cls-1" d="M108.06,39.33l1.31-2.56h0l1.31,2.56h-.53l-.2-.4h-1.21l-.19.4Zm1-.83h.73l-.36-.77Z" transform="translate(-0.63 -0.25)"/><path class="cls-1" d="M113.39,39.33l-1.69-1.52v1.52h-.49V36.77h.05L113,38.32V36.77h.49v2.56Z" transform="translate(-0.63 -0.25)"/><path class="cls-1" d="M115.18,39.33h-1V36.77h1a1.33,1.33,0,0,1,.91.32,1.11,1.11,0,0,1,.28.42,1.33,1.33,0,0,1,.1.54,1.38,1.38,0,0,1-.1.55,1.07,1.07,0,0,1-.28.41,1.1,1.1,0,0,1-.4.24A1.4,1.4,0,0,1,115.18,39.33Zm-.52-.43h.53a1.24,1.24,0,0,0,.27,0,.53.53,0,0,0,.26-.13.7.7,0,0,0,.18-.25,1.08,1.08,0,0,0,.08-.44,1.06,1.06,0,0,0-.08-.43.73.73,0,0,0-.19-.26.58.58,0,0,0-.25-.12,1.31,1.31,0,0,0-.27,0h-.53Z" transform="translate(-0.63 -0.25)"/><path class="cls-1" d="M119.48,39.33h-1V36.77h1a1.33,1.33,0,0,1,.91.32,1.11,1.11,0,0,1,.28.42,1.33,1.33,0,0,1,.1.54,1.38,1.38,0,0,1-.1.55,1.07,1.07,0,0,1-.28.41,1.1,1.1,0,0,1-.4.24A1.4,1.4,0,0,1,119.48,39.33ZM119,38.9h.53a1.24,1.24,0,0,0,.27,0,.53.53,0,0,0,.26-.13.6.6,0,0,0,.18-.25,1.08,1.08,0,0,0,.08-.44,1.06,1.06,0,0,0-.08-.43.71.71,0,0,0-.18-.26.68.68,0,0,0-.26-.12,1.31,1.31,0,0,0-.27,0H119Z" transform="translate(-0.63 -0.25)"/><path class="cls-1" d="M121.78,37.2v.64H123v.45h-1.24v.6h1.4v.44h-1.89V36.77h1.89v.43Z" transform="translate(-0.63 -0.25)"/><path class="cls-1" d="M126.09,36.77l-1.22,2.56h0l-1.21-2.56h.54l.69,1.49.69-1.49Z" transform="translate(-0.63 -0.25)"/><path class="cls-1" d="M127.05,37.2v.64h1.24v.45h-1.24v.6h1.4v.44h-1.89V36.77h1.89v.43Z" transform="translate(-0.63 -0.25)"/><path class="cls-1" d="M131,38.9v.43h-1.84V36.77h.49V38.9Z" transform="translate(-0.63 -0.25)"/><path class="cls-1" d="M132.51,39.38a1.25,1.25,0,0,1-.51-.1,1.42,1.42,0,0,1-.43-.29,1.34,1.34,0,0,1-.28-.42,1.27,1.27,0,0,1-.11-.52,1.37,1.37,0,0,1,.39-.94,1.39,1.39,0,0,1,.43-.28,1.26,1.26,0,0,1,1,0,1.34,1.34,0,0,1,.42.28,1.37,1.37,0,0,1,.29.42,1.34,1.34,0,0,1,.1.52,1.27,1.27,0,0,1-.1.52,1.42,1.42,0,0,1-.71.71A1.27,1.27,0,0,1,132.51,39.38Zm0-2.2a.71.71,0,0,0-.32.07,1,1,0,0,0-.27.19.9.9,0,0,0-.18.28,1,1,0,0,0-.07.33.88.88,0,0,0,.07.33.9.9,0,0,0,.18.28,1.05,1.05,0,0,0,.27.2.79.79,0,0,0,.65,0,1.05,1.05,0,0,0,.27-.2,1.12,1.12,0,0,0,.18-.28.88.88,0,0,0,.06-.33,1,1,0,0,0-.06-.33,1.12,1.12,0,0,0-.18-.28,1,1,0,0,0-.27-.19A.72.72,0,0,0,132.51,37.18Z" transform="translate(-0.63 -0.25)"/><path class="cls-1" d="M135.59,36.77a.86.86,0,0,1,.36.07.84.84,0,0,1,.29.2.92.92,0,0,1,.19.28.89.89,0,0,1,.07.36,1,1,0,0,1-.06.35.75.75,0,0,1-.18.28.89.89,0,0,1-.31.19,1.2,1.2,0,0,1-.44.07h-.57v.76h-.49V36.77Zm0,1.36a.36.36,0,0,0,.19,0,.27.27,0,0,0,.13-.1.39.39,0,0,0,.08-.14.5.5,0,0,0,0-.17.47.47,0,0,0,0-.17.51.51,0,0,0-.09-.16.57.57,0,0,0-.35-.15h-.6v.93Z" transform="translate(-0.63 -0.25)"/><path class="cls-1" d="M139.58,36.77v2.56h-.49V38l-.8,1-.8-1v1.29H137V36.77h0l1.26,1.48,1.26-1.48Z" transform="translate(-0.63 -0.25)"/><path class="cls-1" d="M140.81,37.2v.64h1.24v.45h-1.24v.6h1.4v.44h-1.89V36.77h1.89v.43Z" transform="translate(-0.63 -0.25)"/><path class="cls-1" d="M145.06,39.33l-1.68-1.52v1.52h-.49V36.77h.05l1.69,1.55V36.77h.49v2.56Z" transform="translate(-0.63 -0.25)"/><path class="cls-1" d="M147.58,37.2h-.73v2.13h-.49V37.2h-.73v-.43h2Z" transform="translate(-0.63 -0.25)"/></svg>