<svg id="Layer_1" data-name="Layer 1" xmlns="http://www.w3.org/2000/svg" viewBox="0 0 19.01 18.1"><defs><style>.cls-1{fill:#ffc107;}</style></defs><path class="cls-1" d="M10.44,16.34a1,1,0,0,0-.88,0L4.42,19c-.25.13-.41,0-.36-.26l1-5.72a1.1,1.1,0,0,0-.27-.85L.61,8.16C.41,8,.47,7.78.74,7.74L6.49,6.9a1.07,1.07,0,0,0,.72-.52l2.57-5.2c.12-.25.32-.25.44,0l2.57,5.2a1.07,1.07,0,0,0,.72.52l5.75.84c.27,0,.33.23.13.42l-4.16,4.05a1.1,1.1,0,0,0-.27.85l1,5.72c.05.27-.11.39-.36.26Z" transform="translate(-0.49 -0.99)"/></svg>