<?xml version="1.0" encoding="utf-8"?>
<!-- Generator: Adobe Illustrator 24.3.0, SVG Export Plug-In . SVG Version: 6.00 Build 0)  -->
<svg version="1.1" id="Layer_1" xmlns="http://www.w3.org/2000/svg" xmlns:xlink="http://www.w3.org/1999/xlink" x="0px" y="0px"
	 viewBox="0 0 19 18.1" style="enable-background:new 0 0 19 18.1;" xml:space="preserve">
<style type="text/css">
	.st0{fill:#F5F4F8;}
</style>
<path class="st0" d="M9.9,15.4c-0.3-0.1-0.6-0.1-0.9,0L3.9,18c-0.2,0.1-0.4,0-0.4-0.3l1-5.7c0-0.3-0.1-0.6-0.3-0.9l-4.2-4
	C-0.1,7,0,6.8,0.2,6.8L6,5.9c0.3-0.1,0.6-0.3,0.7-0.5l2.6-5.2c0.1-0.2,0.3-0.2,0.4,0l2.6,5.2c0.2,0.3,0.4,0.5,0.7,0.5l5.7,0.8
	c0.3,0,0.3,0.2,0.1,0.4l-4.2,4.1c-0.2,0.2-0.3,0.5-0.3,0.9l1,5.7c0,0.3-0.1,0.4-0.4,0.3L9.9,15.4z"/>
</svg>
