<svg id="Layer_1" data-name="Layer 1" xmlns="http://www.w3.org/2000/svg" viewBox="0 0 50 50"><defs><style>.cls-1{fill:#fff;}</style></defs><path class="cls-1" d="M33.31,32a2,2,0,0,1-2.13-1.85,2.15,2.15,0,0,1,4.26,0,1,1,0,1,0,1.93,0,3.84,3.84,0,0,0-3.09-3.66V26a1,1,0,1,0-1.94,0v.5a3.84,3.84,0,0,0-3.09,3.66,3.93,3.93,0,0,0,4.06,3.78,1.86,1.86,0,1,1-2.13,1.84,1,1,0,1,0-1.93,0,3.86,3.86,0,0,0,3.09,3.67v.41a1,1,0,0,0,1.94,0v-.41a3.86,3.86,0,0,0,3.09-3.67A3.93,3.93,0,0,0,33.31,32Z"/><path class="cls-1" d="M43.9,26.24a12.59,12.59,0,0,0-5.15-4.55,1,1,0,1,0-.83,1.74A10.65,10.65,0,0,1,42.71,38a1,1,0,0,0,.4,1.31.91.91,0,0,0,.45.11,1,1,0,0,0,.86-.51,12.62,12.62,0,0,0-.52-12.68Z"/><path class="cls-1" d="M34.83,20.46h-.07a1,1,0,0,0,0,1.93h.07a1,1,0,0,0,0-1.93Z"/><path class="cls-1" d="M28.71,42.62A10.65,10.65,0,0,1,23.92,28a1,1,0,0,0-1.71-.91,12.58,12.58,0,0,0,5.67,17.23,1,1,0,1,0,.83-1.74Z"/><path class="cls-1" d="M31.86,43.66h-.05a1,1,0,1,0,0,1.93h.06a1,1,0,1,0,0-1.93Z"/><path class="cls-1" d="M37.7,17.19a3.53,3.53,0,0,0-.43-.79h2.52a4.45,4.45,0,1,0,0-8.9H32.05a4.44,4.44,0,0,0-3.67-7H4.7a4.45,4.45,0,1,0,0,8.89h7.74A4.47,4.47,0,0,0,11.66,12a4.42,4.42,0,0,0,.78,2.51H9.92a4.45,4.45,0,0,0-2.77,7.93,4.44,4.44,0,0,0,0,7,4.44,4.44,0,0,0,0,7,4.45,4.45,0,0,0,2.77,7.93H21.31a16.43,16.43,0,1,0,16.39-27Zm2.09-7.76a2.52,2.52,0,1,1,0,5H16.11a2.52,2.52,0,1,1,0-5ZM4.7,7.5a2.52,2.52,0,1,1,0-5H28.38a2.52,2.52,0,1,1,0,5Zm5.22,8.9H33.6a2.54,2.54,0,0,1,1.1.25c-.46,0-.92-.06-1.39-.06a16.42,16.42,0,0,0-11.63,4.83H9.92a2.51,2.51,0,1,1,0-5Zm0,7H20a16.35,16.35,0,0,0-2.48,5H9.92a2.51,2.51,0,1,1,0-5Zm0,7H17.1a17.16,17.16,0,0,0-.22,2.7A17.6,17.6,0,0,0,17,35.34H9.92a2.51,2.51,0,1,1,0-5Zm0,12a2.52,2.52,0,1,1,0-5h7.52a16.48,16.48,0,0,0,2.32,5Zm23.39,5.22A14.51,14.51,0,1,1,47.82,33,14.53,14.53,0,0,1,33.31,47.53Z"/></svg>