<svg id="Layer_1" data-name="Layer 1" xmlns="http://www.w3.org/2000/svg" viewBox="0 0 50 50"><defs><style>.cls-1{fill:#fff;}</style></defs><path class="cls-1" d="M25.42,20.57a6.42,6.42,0,1,0-6.84-6.83A6.44,6.44,0,0,0,25.42,20.57ZM20,13.83a5,5,0,1,1,5.29,5.29A5,5,0,0,1,20,13.83Zm-6.1-3.09h0a2.8,2.8,0,0,0-2.83,2.78v1.21a2.85,2.85,0,0,0,2.85,2.84,1.17,1.17,0,0,1,.82,2,2.86,2.86,0,0,0,0,4l.81.8a2.84,2.84,0,0,0,4,0,1.17,1.17,0,0,1,2,.83,2.85,2.85,0,0,0,2.85,2.84h1.14a2.85,2.85,0,0,0,2.85-2.84,1.17,1.17,0,0,1,2-.83,2.84,2.84,0,0,0,4,0l.81-.8a2.86,2.86,0,0,0,0-4,1.17,1.17,0,0,1,.82-2h0a2.79,2.79,0,0,0,2.83-2.78V13.52a2.78,2.78,0,0,0-2.83-2.77h0a1.17,1.17,0,0,1-.82-2,2.86,2.86,0,0,0,0-4l-.86-.86a2.78,2.78,0,0,0-4,0,1.17,1.17,0,0,1-2-.83A2.85,2.85,0,0,0,25.57.25H24.43a2.85,2.85,0,0,0-2.85,2.84,1.17,1.17,0,0,1-2,.83,2.84,2.84,0,0,0-4,0l-.81.81a2.86,2.86,0,0,0,0,4A1.16,1.16,0,0,1,13.93,10.74Zm1.85-3a1.4,1.4,0,0,1,0-2l.81-.8a1.38,1.38,0,0,1,2,0A2.62,2.62,0,0,0,23,3.09a1.4,1.4,0,0,1,1.4-1.39h1.14A1.4,1.4,0,0,1,27,3.09a2.62,2.62,0,0,0,4.48,1.85,1.34,1.34,0,0,1,1.92,0l.85.85a1.4,1.4,0,0,1,0,2,2.61,2.61,0,0,0,1.86,4.47h0a1.34,1.34,0,0,1,1.38,1.33v1.27a1.34,1.34,0,0,1-1.38,1.33h0a2.62,2.62,0,0,0-1.85,4.47,1.4,1.4,0,0,1,0,2l-.81.81a1.4,1.4,0,0,1-2,0A2.62,2.62,0,0,0,27,25.22a1.4,1.4,0,0,1-1.4,1.4H24.43a1.4,1.4,0,0,1-1.4-1.4,2.62,2.62,0,0,0-4.47-1.85,1.4,1.4,0,0,1-2,0l-.81-.81a1.4,1.4,0,0,1,0-2,2.62,2.62,0,0,0-1.85-4.47,1.4,1.4,0,0,1-1.4-1.39V13.52a1.35,1.35,0,0,1,1.38-1.33h0A2.62,2.62,0,0,0,15.78,7.72ZM46.88,7H38.53a.73.73,0,0,0,0,1.45h8.35a1.37,1.37,0,0,1,1.37,1.37V32.62H1.75V9.81A1.37,1.37,0,0,1,3.12,8.44h8.36a.73.73,0,1,0,0-1.45H3.12A2.82,2.82,0,0,0,.3,9.81V36.6a2.82,2.82,0,0,0,2.82,2.82H19.67v.14a6.36,6.36,0,0,1-2.41,5H14.87a2.61,2.61,0,1,0,0,5.22H35.13a2.61,2.61,0,1,0,0-5.22H32.74a6.36,6.36,0,0,1-2.41-5v-.14H46.88A2.82,2.82,0,0,0,49.7,36.6V9.81A2.82,2.82,0,0,0,46.88,7ZM35.13,46a1.16,1.16,0,0,1,0,2.32H14.87a1.16,1.16,0,0,1,0-2.32Zm-4.45-1.45H19.32a7.78,7.78,0,0,0,1.8-5v-.14h7.76v.14A7.78,7.78,0,0,0,30.68,44.53ZM48.25,36.6A1.37,1.37,0,0,1,46.88,38H3.12A1.37,1.37,0,0,1,1.75,36.6V34.07h46.5Z"/></svg>